<svg width="207" height="50" viewBox="0 0 207 50" fill="none" xmlns="http://www.w3.org/2000/svg">
<path d="M25.3359 25.6875C25.4167 25.8086 25.4772 25.9297 25.5176 26.0508C25.5579 26.1719 25.6185 26.2728 25.6992 26.3535C25.901 26.5957 26.0423 26.7572 26.123 26.8379C26.2038 26.9186 26.2845 26.9792 26.3652 27.0195C26.5267 27.1406 26.6478 27.2415 26.7285 27.3223C26.8092 27.3626 26.8698 27.4232 26.9102 27.5039C27.0312 27.5443 27.1322 27.625 27.2129 27.7461C27.2936 27.8268 27.4147 27.8672 27.5762 27.8672C27.8184 28.3112 28.0404 28.5534 28.2422 28.5938L28.7871 29.0176C28.8678 29.0983 28.9486 29.1992 29.0293 29.3203C29.1504 29.401 29.2715 29.4818 29.3926 29.5625C29.8366 29.9661 30.0788 30.2285 30.1191 30.3496C30.4017 30.7129 30.6035 30.9349 30.7246 31.0156C30.8457 31.0964 30.9466 31.1771 31.0273 31.2578C31.3503 31.5807 31.5924 31.8633 31.7539 32.1055C32.1172 32.4284 32.319 32.6706 32.3594 32.832C32.3997 32.9935 32.4603 33.1146 32.541 33.1953C32.6621 33.5586 32.7227 33.8008 32.7227 33.9219C32.9648 34.3255 33.1061 34.6484 33.1465 34.8906C33.2272 35.0924 33.3079 35.3145 33.3887 35.5566C33.3483 36.0007 33.3079 36.2832 33.2676 36.4043C33.2676 36.5254 33.2474 36.6465 33.207 36.7676C33.0052 37.252 32.9043 37.5547 32.9043 37.6758C32.9447 37.7969 32.9245 37.9382 32.8438 38.0996C32.8034 38.2611 32.7227 38.4023 32.6016 38.5234C32.5208 38.6445 32.4805 38.806 32.4805 39.0078C32.3594 39.0885 32.2585 39.1895 32.1777 39.3105C32.097 39.4316 32.0163 39.5527 31.9355 39.6738C31.653 39.9564 31.4915 40.1178 31.4512 40.1582C31.4108 40.1582 31.3503 40.1986 31.2695 40.2793L30.7852 41.0059C30.5026 41.3288 30.3411 41.5104 30.3008 41.5508C30.2604 41.5508 30.2201 41.5911 30.1797 41.6719C29.9779 41.8737 29.7962 42.0957 29.6348 42.3379C29.11 42.6608 28.7064 43.0039 28.4238 43.3672C27.9798 43.6497 27.7174 43.8314 27.6367 43.9121C27.5964 43.9525 27.5358 44.013 27.4551 44.0938C27.1725 44.2148 26.9707 44.3158 26.8496 44.3965C26.7689 44.4772 26.6882 44.5579 26.6074 44.6387C26.1634 44.9212 25.8607 45.1029 25.6992 45.1836L25.1543 45.6074C24.8717 45.8496 24.7103 45.9707 24.6699 45.9707C24.6296 45.9707 24.5892 45.9909 24.5488 46.0312L24.0039 46.4551C23.681 46.5358 23.4993 46.5964 23.459 46.6367C23.4186 46.6771 23.3581 46.6973 23.2773 46.6973C22.9544 46.8991 22.571 47.0404 22.127 47.1211C21.7233 47.2018 21.3197 47.3229 20.916 47.4844C20.5527 47.444 20.3105 47.4238 20.1895 47.4238C20.1087 47.4238 20.028 47.444 19.9473 47.4844C19.5436 47.5247 19.2005 47.5651 18.918 47.6055C18.6758 47.6458 18.4134 47.666 18.1309 47.666L17.041 47.6055C16.597 47.5247 16.3346 47.4642 16.2539 47.4238C16.1732 47.3835 16.0924 47.3431 16.0117 47.3027C15.6484 47.222 15.4264 47.1816 15.3457 47.1816C15.265 47.222 15.1842 47.2422 15.1035 47.2422C14.9017 47.2422 14.7201 47.222 14.5586 47.1816C14.4375 47.1816 14.276 47.1816 14.0742 47.1816C13.9531 47.1816 13.8118 47.1816 13.6504 47.1816C13.5293 47.222 13.388 47.222 13.2266 47.1816C13.1458 47.1816 13.0247 47.1816 12.8633 47.1816C12.7422 47.222 12.6413 47.2422 12.5605 47.2422C12.2376 47.2422 11.9954 47.2624 11.834 47.3027C11.7129 47.3431 11.5312 47.3633 11.2891 47.3633C10.9661 47.3229 10.7441 47.3229 10.623 47.3633C10.5423 47.4036 10.4616 47.444 10.3809 47.4844C9.97721 47.5651 9.61393 47.5853 9.29102 47.5449C8.9681 47.5449 8.70573 47.6055 8.50391 47.7266C8.34245 47.6458 8.18099 47.6055 8.01953 47.6055C7.89844 47.6458 7.75716 47.6862 7.5957 47.7266C7.0306 47.6862 6.62695 47.6862 6.38477 47.7266C6.14258 47.7669 5.88021 47.7669 5.59766 47.7266C5.27474 47.6458 5.0931 47.6055 5.05273 47.6055C5.01237 47.6458 4.95182 47.666 4.87109 47.666C4.79036 47.666 4.66927 47.6458 4.50781 47.6055C4.34635 47.6055 4.22526 47.6257 4.14453 47.666C3.4987 47.5046 3.07487 47.444 2.87305 47.4844C2.67122 47.5247 2.4694 47.5247 2.26758 47.4844C2.06576 47.4036 1.86393 47.3027 1.66211 47.1816C1.37956 46.9395 1.19792 46.778 1.11719 46.6973C1.07682 46.6165 1.05664 46.5358 1.05664 46.4551C1.05664 46.1322 1.03646 45.9102 0.996094 45.7891C0.996094 45.668 0.996094 45.5469 0.996094 45.4258C1.03646 45.224 1.03646 45.0827 0.996094 45.002C0.996094 44.8809 0.996094 44.7598 0.996094 44.6387L0.935547 43.6699V42.9434C1.01628 42.6608 1.03646 42.4993 0.996094 42.459C0.996094 42.3783 1.01628 42.2975 1.05664 42.2168C1.09701 42.015 1.11719 41.8333 1.11719 41.6719C1.15755 41.5104 1.19792 41.2884 1.23828 41.0059C1.35938 40.5618 1.39974 40.2995 1.35938 40.2188C1.35938 40.0977 1.35938 39.9967 1.35938 39.916C1.39974 39.7142 1.4401 39.5527 1.48047 39.4316C1.52083 39.2702 1.54102 39.1087 1.54102 38.9473V38.2207C1.58138 37.9382 1.58138 37.7767 1.54102 37.7363C1.54102 37.696 1.54102 37.6354 1.54102 37.5547C1.58138 37.3529 1.60156 37.151 1.60156 36.9492C1.64193 36.707 1.66211 36.4447 1.66211 36.1621C1.70247 35.6374 1.70247 35.3346 1.66211 35.2539C1.66211 35.1732 1.66211 35.0924 1.66211 35.0117C1.70247 34.5273 1.70247 34.2044 1.66211 34.043C1.66211 33.8815 1.66211 33.6999 1.66211 33.498C1.70247 33.4173 1.70247 33.3164 1.66211 33.1953C1.62174 33.0339 1.60156 32.8724 1.60156 32.7109C1.60156 32.5495 1.60156 32.4082 1.60156 32.2871C1.64193 32.1257 1.66211 31.944 1.66211 31.7422C1.66211 31.2174 1.64193 30.834 1.60156 30.5918C1.60156 30.3496 1.58138 30.1074 1.54102 29.8652C1.54102 29.7038 1.52083 29.5625 1.48047 29.4414C1.48047 29.2799 1.48047 29.1185 1.48047 28.957V27.1406C1.4401 26.737 1.41992 26.515 1.41992 26.4746L1.29883 24.3555C1.25846 24.2344 1.2181 24.1133 1.17773 23.9922C1.13737 23.8711 1.11719 23.75 1.11719 23.6289L1.17773 22.9023L1.23828 22.1152C1.19792 21.6712 1.13737 21.3281 1.05664 21.0859C1.09701 20.5208 1.07682 20.1576 0.996094 19.9961C0.955729 19.7943 0.975911 19.6126 1.05664 19.4512C1.05664 19.1686 1.03646 18.987 0.996094 18.9062C0.996094 18.7852 0.996094 18.6842 0.996094 18.6035C0.834635 17.877 0.733724 17.332 0.693359 16.9688C0.652995 16.6862 0.652995 16.3835 0.693359 16.0605C0.733724 15.7376 0.733724 15.4147 0.693359 15.0918C0.693359 14.9707 0.673177 14.8496 0.632812 14.7285C0.632812 14.6074 0.632812 14.5065 0.632812 14.4258C0.592448 14.1836 0.592448 13.9212 0.632812 13.6387C0.673177 13.3561 0.693359 13.1139 0.693359 12.9121C0.693359 12.5488 0.673177 12.347 0.632812 12.3066C0.592448 12.2663 0.572266 12.2259 0.572266 12.1855C0.572266 12.0241 0.592448 11.8828 0.632812 11.7617C0.673177 11.6406 0.693359 11.5195 0.693359 11.3984L0.632812 10.127C0.592448 10.0059 0.552083 9.90495 0.511719 9.82422C0.471354 9.70312 0.451172 9.56185 0.451172 9.40039V8.43164C0.451172 8.06836 0.43099 7.70508 0.390625 7.3418C0.35026 6.93815 0.370443 6.59505 0.451172 6.3125C0.370443 6.19141 0.330078 5.98958 0.330078 5.70703C0.370443 5.38411 0.330078 5.16211 0.208984 5.04102C0.249349 4.55664 0.249349 4.29427 0.208984 4.25391C0.16862 4.21354 0.148438 4.15299 0.148438 4.07227C0.148438 3.70898 0.188802 3.50716 0.269531 3.4668C0.35026 3.38607 0.35026 3.28516 0.269531 3.16406C0.511719 2.72005 0.693359 2.49805 0.814453 2.49805C0.975911 2.45768 1.09701 2.39714 1.17773 2.31641C1.37956 2.31641 1.52083 2.33659 1.60156 2.37695C1.68229 2.37695 1.76302 2.31641 1.84375 2.19531H2.57031C2.89323 2.27604 3.07487 2.31641 3.11523 2.31641C3.1556 2.27604 3.21615 2.25586 3.29688 2.25586C3.78125 2.29622 4.14453 2.29622 4.38672 2.25586C4.66927 2.21549 4.93164 2.23568 5.17383 2.31641C5.29492 2.23568 5.4362 2.21549 5.59766 2.25586C5.79948 2.29622 5.90039 2.27604 5.90039 2.19531C6.3444 2.23568 6.62695 2.27604 6.74805 2.31641C6.86914 2.31641 6.97005 2.29622 7.05078 2.25586C7.65625 2.17513 7.99935 2.15495 8.08008 2.19531C8.40299 2.23568 8.58464 2.25586 8.625 2.25586C8.70573 2.21549 8.78646 2.19531 8.86719 2.19531C9.35156 2.19531 9.59375 2.15495 9.59375 2.07422C10.1992 2.27604 10.6432 2.35677 10.9258 2.31641C11.2487 2.23568 11.5111 2.19531 11.7129 2.19531H13.166C13.4889 2.15495 13.7715 2.13477 14.0137 2.13477C14.2559 2.0944 14.5182 2.03385 14.8008 1.95312C15.2044 2.07422 15.4466 2.11458 15.5273 2.07422C15.6484 2.03385 15.7695 1.99349 15.8906 1.95312H17.041C17.6868 1.95312 18.151 1.95312 18.4336 1.95312C18.7565 1.95312 19.0794 1.95312 19.4023 1.95312C19.6445 1.91276 19.8464 1.89258 20.0078 1.89258C20.2096 1.85221 20.3913 1.79167 20.5527 1.71094L21.2793 1.89258C21.6426 1.89258 21.8444 1.89258 21.8848 1.89258C21.9251 1.85221 21.9857 1.85221 22.0664 1.89258C22.3893 2.01367 22.571 2.07422 22.6113 2.07422C22.6517 2.07422 22.7122 2.0944 22.793 2.13477C22.9141 2.17513 23.0352 2.21549 23.1562 2.25586C23.2773 2.29622 23.4186 2.31641 23.5801 2.31641C24.0241 2.51823 24.3672 2.65951 24.6094 2.74023C24.8112 3.06315 24.9525 3.26497 25.0332 3.3457C25.1543 3.42643 25.2552 3.52734 25.3359 3.64844C25.5781 3.93099 25.6992 4.09245 25.6992 4.13281C25.7396 4.17318 25.7799 4.21354 25.8203 4.25391C26.0625 4.53646 26.1836 4.69792 26.1836 4.73828C26.1836 4.73828 26.2038 4.75846 26.2441 4.79883C26.4056 4.96029 26.5267 5.10156 26.6074 5.22266C26.6882 5.34375 26.7891 5.44466 26.9102 5.52539C27.1523 5.80794 27.334 6.05013 27.4551 6.25195C27.6165 6.41341 27.778 6.59505 27.9395 6.79688C28.2624 7.24089 28.4844 7.52344 28.6055 7.64453C28.7266 7.76562 28.8275 7.9069 28.9082 8.06836C29.0697 8.18945 29.1908 8.29036 29.2715 8.37109C29.3522 8.45182 29.4329 8.53255 29.5137 8.61328C29.9173 9.13802 30.1595 9.5013 30.2402 9.70312C30.5228 9.98568 30.7044 10.1673 30.7852 10.248C30.8659 10.3288 30.9466 10.4095 31.0273 10.4902C31.2695 10.9342 31.4714 11.237 31.6328 11.3984C31.9557 11.7617 32.1172 11.9635 32.1172 12.0039C32.1576 12.0443 32.2181 12.125 32.2988 12.2461C32.5814 12.569 32.7428 12.7708 32.7832 12.8516C33.0658 13.2552 33.207 13.4772 33.207 13.5176C33.2474 13.5579 33.2878 13.5983 33.3281 13.6387C33.6107 14.002 33.752 14.2643 33.752 14.4258C33.752 14.5469 33.7923 14.7083 33.873 14.9102C33.9941 15.2331 34.0749 15.4147 34.1152 15.4551C34.1556 15.4954 34.1758 15.556 34.1758 15.6367C34.2161 16.0807 34.196 16.444 34.1152 16.7266C34.0345 17.0898 33.9538 17.3118 33.873 17.3926C33.8327 17.4733 33.7923 17.554 33.752 17.6348C33.6712 17.7559 33.6309 17.8971 33.6309 18.0586C33.6712 18.1797 33.651 18.321 33.5703 18.4824C33.207 18.8053 32.9648 19.0273 32.8438 19.1484C32.763 19.2292 32.6823 19.3099 32.6016 19.3906C32.3594 19.6732 32.2181 19.8952 32.1777 20.0566C31.9759 20.1374 31.8346 20.2585 31.7539 20.4199C31.7135 20.541 31.5924 20.6419 31.3906 20.7227C31.3099 20.9245 31.209 21.0658 31.0879 21.1465C30.9668 21.1868 30.8659 21.3079 30.7852 21.5098C30.2604 21.7923 29.8366 22.0547 29.5137 22.2969C29.4329 22.3776 29.3522 22.4583 29.2715 22.5391C29.1908 22.6198 29.0898 22.6803 28.9688 22.7207C28.7669 22.9225 28.6257 23.0638 28.5449 23.1445C28.5046 23.1849 28.444 23.2454 28.3633 23.3262C28.0404 23.4876 27.7174 23.6895 27.3945 23.9316C26.9909 24.2142 26.7487 24.3757 26.668 24.416C26.6276 24.416 26.5671 24.4564 26.4863 24.5371C26.123 24.9004 25.9212 25.1022 25.8809 25.1426C25.5983 25.4251 25.457 25.5866 25.457 25.627C25.457 25.627 25.4167 25.6471 25.3359 25.6875ZM22.127 15.1523C21.8444 14.7487 21.7031 14.5267 21.7031 14.4863C21.7031 14.446 21.6829 14.3854 21.6426 14.3047C21.4004 14.0625 21.2591 13.901 21.2188 13.8203C21.2188 13.7396 21.1784 13.6589 21.0977 13.5781C20.8555 13.2552 20.7142 13.0736 20.6738 13.0332C20.472 12.7507 20.3105 12.5488 20.1895 12.4277C20.1087 12.347 20.028 12.2461 19.9473 12.125C19.9069 12.0039 19.8464 11.903 19.7656 11.8223C19.4427 11.4993 19.2611 11.3379 19.2207 11.3379C18.9382 11.015 18.7565 10.8132 18.6758 10.7324C18.3932 10.3691 18.2318 10.1875 18.1914 10.1875C18.1914 10.1471 18.1712 10.127 18.1309 10.127L17.5859 9.64258C17.5052 9.52148 17.4245 9.42057 17.3438 9.33984C17.3034 9.25911 17.2428 9.1582 17.1621 9.03711C17.041 8.99674 16.9199 8.9362 16.7988 8.85547C16.7181 8.77474 16.6374 8.69401 16.5566 8.61328C16.1126 8.37109 15.8906 8.25 15.8906 8.25C15.5677 8.08854 15.3659 8.00781 15.2852 8.00781C15.2044 7.96745 15.1439 7.92708 15.1035 7.88672C14.9421 7.80599 14.8008 7.76562 14.6797 7.76562C14.5586 7.72526 14.4577 7.6849 14.377 7.64453C14.2559 7.60417 14.1348 7.58398 14.0137 7.58398C13.9329 7.58398 13.8118 7.5638 13.6504 7.52344C13.2064 7.48307 12.9238 7.42253 12.8027 7.3418C12.6816 7.26107 12.5605 7.26107 12.4395 7.3418C12.1569 7.86654 11.9753 8.25 11.8945 8.49219C11.8542 8.69401 11.8138 8.91602 11.7734 9.1582L11.5312 10.1875C11.4909 10.3086 11.4707 10.4499 11.4707 10.6113C11.5111 10.7728 11.5111 10.9342 11.4707 11.0957C11.3092 11.8223 11.2487 12.347 11.2891 12.6699C11.3294 12.9525 11.3698 13.2552 11.4102 13.5781C11.4102 13.7799 11.39 13.9818 11.3496 14.1836C11.3496 14.3854 11.3698 14.5872 11.4102 14.7891C11.4102 14.9102 11.4303 15.0312 11.4707 15.1523C11.5111 15.2734 11.5111 15.4147 11.4707 15.5762C11.4707 15.9798 11.4505 16.222 11.4102 16.3027C11.4102 16.3835 11.4102 16.4642 11.4102 16.5449C11.5312 17.11 11.5716 17.5137 11.5312 17.7559C11.5312 17.9577 11.5716 18.1595 11.6523 18.3613C11.4505 18.6439 11.4505 19.0273 11.6523 19.5117C11.5312 19.7539 11.5111 20.0163 11.5918 20.2988L11.6523 21.0859C11.5716 21.3685 11.5312 21.6107 11.5312 21.8125C11.4909 22.1354 11.4909 22.3978 11.5312 22.5996C11.612 22.7611 11.6927 22.9427 11.7734 23.1445C12.1367 23.1042 12.3184 23.084 12.3184 23.084C12.3587 23.084 12.3991 23.0638 12.4395 23.0234C12.9238 22.9427 13.166 22.9023 13.166 22.9023C13.4082 22.7409 13.5697 22.6602 13.6504 22.6602C13.7715 22.6602 13.8724 22.64 13.9531 22.5996C14.3568 22.3574 14.599 22.2363 14.6797 22.2363C14.7604 22.1556 14.8613 22.0951 14.9824 22.0547C15.1035 21.974 15.2044 21.8932 15.2852 21.8125C15.6888 21.6107 15.931 21.5098 16.0117 21.5098C16.2943 21.3483 16.4557 21.2676 16.4961 21.2676C16.5768 21.2676 16.6576 21.2474 16.7383 21.207C17.0208 20.9245 17.2227 20.7832 17.3438 20.7832L17.8887 20.2988C18.3327 19.9355 18.7161 19.7135 19.0391 19.6328C19.362 19.5521 19.5638 19.3906 19.6445 19.1484C19.7656 19.0677 19.8665 19.0072 19.9473 18.9668C20.028 18.8861 20.1087 18.8053 20.1895 18.7246C20.3913 18.5632 20.5326 18.4622 20.6133 18.4219C20.694 18.3411 20.7344 18.2806 20.7344 18.2402C20.9766 18.0384 21.138 17.9173 21.2188 17.877C21.2995 17.8366 21.36 17.776 21.4004 17.6953C21.6829 17.332 21.8242 17.1504 21.8242 17.1504C21.9453 16.9889 22.0664 16.8477 22.1875 16.7266C22.349 16.5651 22.4701 16.3835 22.5508 16.1816C22.4701 16.0202 22.3893 15.8587 22.3086 15.6973C22.2279 15.5358 22.1673 15.3542 22.127 15.1523ZM13.166 40.9453C13.5697 40.9857 13.7917 40.9857 13.832 40.9453C14.2357 40.9453 14.4577 40.9453 14.498 40.9453C14.9421 40.8646 15.2044 40.8242 15.2852 40.8242C15.3659 40.8242 15.4466 40.804 15.5273 40.7637C15.931 40.6426 16.1732 40.5417 16.2539 40.4609C16.6172 40.3802 16.7988 40.3398 16.7988 40.3398C16.8392 40.2995 16.8796 40.2793 16.9199 40.2793C17.1621 40.1178 17.3438 40.0371 17.4648 40.0371C17.6263 40.0371 17.7474 39.9967 17.8281 39.916C18.151 39.6335 18.373 39.472 18.4941 39.4316C18.6152 39.3509 18.7363 39.2702 18.8574 39.1895C19.1803 38.9473 19.362 38.8262 19.4023 38.8262C19.4427 38.7858 19.4629 38.7454 19.4629 38.7051C19.7051 38.4225 19.8464 38.3014 19.8867 38.3418C19.9674 38.3418 20.028 38.3216 20.0684 38.2812C20.3105 37.7161 20.4922 37.3529 20.6133 37.1914C20.7344 36.9896 20.8353 36.7676 20.916 36.5254C21.2389 36.1621 21.4408 35.9401 21.5215 35.8594C21.6426 35.7383 21.7233 35.6374 21.7637 35.5566C21.7637 35.2337 21.7637 35.0723 21.7637 35.0723C21.804 35.0319 21.8242 34.9714 21.8242 34.8906C21.7435 34.3255 21.7031 34.0026 21.7031 33.9219C21.7031 33.8411 21.6829 33.6999 21.6426 33.498C21.36 33.2155 21.1784 33.054 21.0977 33.0137C21.0573 32.9329 21.0371 32.832 21.0371 32.7109C20.6738 32.388 20.4518 32.2266 20.3711 32.2266C20.3307 32.2266 20.2904 32.2064 20.25 32.166C20.0078 31.8835 19.7253 31.6413 19.4023 31.4395C19.0794 31.1165 18.8776 30.9147 18.7969 30.834C18.7161 30.7129 18.5951 30.6322 18.4336 30.5918C18.1914 30.3092 18.0299 30.1478 17.9492 30.1074C17.8685 30.0671 17.7878 30.0267 17.707 29.9863C17.3034 29.7441 17.0814 29.6029 17.041 29.5625C16.8392 29.401 16.6777 29.3203 16.5566 29.3203C16.4759 29.3203 16.375 29.3001 16.2539 29.2598C15.8906 29.0176 15.6686 28.8763 15.5879 28.8359C15.5072 28.7552 15.4466 28.735 15.4062 28.7754C14.9622 28.6139 14.6999 28.5332 14.6191 28.5332C14.5788 28.5332 14.5384 28.513 14.498 28.4727C13.7715 28.1901 13.2871 28.0488 13.0449 28.0488C12.8835 27.9681 12.6413 27.9277 12.3184 27.9277C12.0358 27.8874 11.834 27.8672 11.7129 27.8672C11.5918 28.0286 11.5312 28.3717 11.5312 28.8965C11.5312 29.2194 11.5514 29.5423 11.5918 29.8652C11.6322 30.1478 11.6725 30.4505 11.7129 30.7734C11.7533 30.9349 11.7734 31.0964 11.7734 31.2578C11.8138 31.4193 11.8138 31.5404 11.7734 31.6211C11.8542 32.0247 11.8743 32.2467 11.834 32.2871C11.834 32.2871 11.834 32.3275 11.834 32.4082C11.8743 32.7311 11.8945 32.9935 11.8945 33.1953C11.8542 33.4375 11.8542 33.6191 11.8945 33.7402C11.9349 33.8613 11.9147 33.9421 11.834 33.9824C11.8743 34.3457 11.8945 34.5677 11.8945 34.6484C11.9349 34.7292 11.9551 34.8099 11.9551 34.8906C11.9954 35.2539 11.9954 35.5768 11.9551 35.8594C11.9551 36.1419 11.9551 36.3841 11.9551 36.5859L12.0156 37.252C12.0156 37.5345 12.0358 37.7161 12.0762 37.7969C12.1165 37.8776 12.1367 37.9785 12.1367 38.0996C12.1771 38.2611 12.1973 38.5436 12.1973 38.9473C12.1569 39.2702 12.1367 39.472 12.1367 39.5527C12.1771 39.5931 12.1973 39.6335 12.1973 39.6738C12.278 40.0775 12.2982 40.2995 12.2578 40.3398C12.2578 40.3802 12.278 40.4206 12.3184 40.4609C12.5605 40.8242 12.7422 41.0059 12.8633 41.0059C12.9844 40.9655 13.0853 40.9453 13.166 40.9453ZM61.1191 29.3809C61.4824 29.8652 61.7448 30.2083 61.9062 30.4102C62.1888 30.6927 62.3301 30.8542 62.3301 30.8945C62.3301 30.8945 62.3503 30.9147 62.3906 30.9551C62.5924 31.2376 62.6934 31.3789 62.6934 31.3789C62.7337 31.3789 62.7741 31.4193 62.8145 31.5C63.0566 31.8229 63.2383 32.0449 63.3594 32.166C63.5208 32.2871 63.6621 32.4284 63.7832 32.5898C63.9447 32.832 64.0859 33.054 64.207 33.2559C64.3281 33.4577 64.4694 33.6595 64.6309 33.8613C64.8327 34.0632 64.9336 34.2044 64.9336 34.2852C64.974 34.3659 65.0345 34.4466 65.1152 34.5273C65.3171 34.8099 65.4382 34.9915 65.4785 35.0723C65.5592 35.1126 65.6198 35.1732 65.6602 35.2539C65.9023 35.6172 66.0638 35.8392 66.1445 35.9199C66.5482 36.5254 66.7904 36.8685 66.8711 36.9492C67.1133 37.1914 67.2949 37.3932 67.416 37.5547C67.6178 37.9583 67.7188 38.1602 67.7188 38.1602C67.8398 38.2812 67.9811 38.4629 68.1426 38.7051C68.2233 38.7858 68.304 38.8665 68.3848 38.9473C68.5059 39.028 68.5866 39.1289 68.627 39.25C68.8691 39.4518 69.0104 39.5729 69.0508 39.6133C69.1315 39.6133 69.1719 39.6536 69.1719 39.7344C69.5352 40.0573 69.7572 40.2389 69.8379 40.2793C69.959 40.2793 70.0195 40.3197 70.0195 40.4004L70.5039 41.0059L71.2305 41.793C71.4727 42.1966 71.5736 42.459 71.5332 42.5801C71.5332 42.6608 71.5534 42.7415 71.5938 42.8223C71.6341 43.3066 71.6139 43.5488 71.5332 43.5488C71.4525 43.5488 71.4121 43.5892 71.4121 43.6699C71.291 43.9121 71.1901 44.0534 71.1094 44.0938C71.069 44.1341 71.0085 44.1745 70.9277 44.2148C70.5241 44.4167 70.3223 44.5176 70.3223 44.5176C70.0397 44.679 69.8581 44.8001 69.7773 44.8809C69.6966 44.9616 69.5957 45.0221 69.4746 45.0625C69.1921 45.224 68.9902 45.3652 68.8691 45.4863C68.748 45.5671 68.5866 45.6074 68.3848 45.6074C68.0215 45.9303 67.7995 46.0918 67.7188 46.0918C67.638 46.0918 67.5573 46.112 67.4766 46.1523C67.3555 46.2331 67.2344 46.3138 67.1133 46.3945C66.9922 46.4349 66.8509 46.4954 66.6895 46.5762C66.2454 46.8184 66.0033 46.9596 65.9629 47C65.9225 47.0404 65.862 47.0807 65.7812 47.1211C65.4583 47.2018 65.2363 47.3431 65.1152 47.5449C64.752 47.6257 64.5501 47.666 64.5098 47.666C64.4694 47.666 64.429 47.6862 64.3887 47.7266C64.0254 47.888 63.8034 47.9284 63.7227 47.8477C63.2786 47.9284 62.9557 47.9486 62.7539 47.9082C62.5924 47.9082 62.4512 47.8678 62.3301 47.7871C62.0072 47.5853 61.8255 47.444 61.7852 47.3633C61.7448 47.2826 61.6842 47.2422 61.6035 47.2422C61.4421 46.8789 61.321 46.6165 61.2402 46.4551C61.0788 46.2533 60.9779 46.1322 60.9375 46.0918C60.9375 46.0111 60.9173 45.9303 60.877 45.8496C60.5944 45.446 60.4531 45.1836 60.4531 45.0625C60.4935 44.9414 60.4935 44.8405 60.4531 44.7598C60.2513 44.4368 60.1302 44.2552 60.0898 44.2148C60.0898 44.1341 60.0697 44.0534 60.0293 43.9727C59.9486 43.8112 59.888 43.6699 59.8477 43.5488C59.8073 43.3874 59.7467 43.2057 59.666 43.0039C59.5046 42.6003 59.4036 42.3783 59.3633 42.3379C59.3229 42.2975 59.3027 42.237 59.3027 42.1562C59.1413 41.9141 59 41.6719 58.8789 41.4297C58.7578 41.1471 58.6367 40.8646 58.5156 40.582C58.4349 40.3802 58.3743 40.2188 58.334 40.0977C58.2936 39.9766 58.2331 39.8555 58.1523 39.7344C57.9909 39.5729 57.8698 39.4316 57.7891 39.3105C57.7487 39.1895 57.6882 39.0885 57.6074 39.0078C57.3249 38.5638 57.1634 38.2812 57.123 38.1602C57.123 37.9987 57.0827 37.8776 57.002 37.7969C56.8809 37.6758 56.7396 37.4134 56.5781 37.0098C56.2956 36.6465 56.1543 36.4447 56.1543 36.4043C56.1543 36.3639 56.1341 36.3034 56.0938 36.2227L55.5488 35.5566C55.3874 35.2741 55.2663 35.1328 55.1855 35.1328C55.1452 35.0924 55.1048 35.0319 55.0645 34.9512C54.9837 34.5879 54.9232 34.3659 54.8828 34.2852C54.8424 34.2044 54.8021 34.1237 54.7617 34.043C54.4792 33.6393 54.2773 33.377 54.1562 33.2559C54.0755 33.1348 53.9948 33.0339 53.9141 32.9531C53.5911 32.8724 53.349 32.8118 53.1875 32.7715C53.0664 32.7311 52.9655 32.7109 52.8848 32.7109L51.9766 32.9531C51.7344 33.0742 51.5527 33.1348 51.4316 33.1348C51.3509 33.0944 51.3105 33.1146 51.3105 33.1953L50.6445 33.0137C50.4427 33.0137 50.3014 33.0339 50.2207 33.0742C50.1803 33.1146 50.0592 33.2155 49.8574 33.377L49.4941 34.043C49.4134 34.2852 49.3932 34.4466 49.4336 34.5273C49.474 34.6081 49.4941 34.6888 49.4941 34.7695C49.4538 35.2943 49.4336 35.6374 49.4336 35.7988C49.474 35.9603 49.4538 36.1016 49.373 36.2227C49.4538 36.4245 49.4941 36.6061 49.4941 36.7676C49.4941 36.929 49.4941 37.1107 49.4941 37.3125C49.5345 37.5547 49.5749 37.7363 49.6152 37.8574C49.6556 37.9382 49.6758 38.0391 49.6758 38.1602C49.6758 38.7656 49.696 39.1491 49.7363 39.3105C49.8171 39.472 49.8372 39.6335 49.7969 39.7949C49.8372 40.2389 49.8776 40.5215 49.918 40.6426C49.9583 40.7233 49.9382 40.7839 49.8574 40.8242L49.9785 41.4902C50.0996 42.0553 50.1602 42.4388 50.1602 42.6406C50.2005 42.8021 50.2611 42.9837 50.3418 43.1855C50.4629 43.6296 50.5234 43.9121 50.5234 44.0332C50.5234 44.1139 50.5234 44.1947 50.5234 44.2754C50.5638 44.5983 50.5638 44.8203 50.5234 44.9414C50.5234 45.0625 50.5234 45.1836 50.5234 45.3047C50.4831 45.7891 50.4427 46.0514 50.4023 46.0918C50.2409 46.4147 50.0794 46.6165 49.918 46.6973C49.474 46.9798 49.1712 47.1009 49.0098 47.0605C48.8483 47.0202 48.707 47 48.5859 47C48.4648 47 48.3438 47.0202 48.2227 47.0605C48.1419 47.1009 48.041 47.1211 47.9199 47.1211C47.4759 47.1615 47.2539 47.1816 47.2539 47.1816C46.7292 47.1816 46.4062 47.2018 46.2852 47.2422C45.8815 47.2826 45.6191 47.3229 45.498 47.3633C45.4173 47.4036 45.3164 47.4238 45.1953 47.4238C44.9128 47.4238 44.7311 47.4036 44.6504 47.3633C44.61 47.3633 44.5495 47.3835 44.4688 47.4238C44.1862 47.4642 44.0046 47.4642 43.9238 47.4238C43.8835 47.3835 43.8229 47.3633 43.7422 47.3633C43.3385 47.4036 43.1165 47.4238 43.0762 47.4238C42.6322 47.3027 42.4102 47.2422 42.4102 47.2422H41.3203C40.8763 47.1211 40.6139 47.0807 40.5332 47.1211C40.4525 47.1615 40.3717 47.1816 40.291 47.1816C40.0488 47.1816 39.8066 47.1211 39.5645 47C39.3626 46.8385 39.181 46.6973 39.0195 46.5762C39.0195 46.4551 38.9993 46.334 38.959 46.2129C38.9186 46.0514 38.8984 45.9102 38.8984 45.7891C38.8984 45.5872 38.9186 45.4056 38.959 45.2441C38.9993 45.0827 39.0195 44.901 39.0195 44.6992C39.0599 44.5781 39.0599 44.457 39.0195 44.3359C39.0195 44.2148 39.0195 44.0938 39.0195 43.9727C39.1406 43.4076 39.2012 43.0039 39.2012 42.7617C39.2012 42.4792 39.2214 42.2168 39.2617 41.9746L39.3828 40.8848C39.4232 40.804 39.4635 40.7031 39.5039 40.582C39.5443 40.4206 39.5645 40.2995 39.5645 40.2188C39.7259 39.7344 39.7865 39.4518 39.7461 39.3711C39.7461 39.25 39.7461 39.1491 39.7461 39.0684C39.8268 38.7051 39.847 38.4831 39.8066 38.4023C39.8066 38.3216 39.8268 38.2409 39.8672 38.1602C39.8672 37.9987 39.8874 37.8776 39.9277 37.7969C39.9681 37.6758 40.0085 37.5547 40.0488 37.4336C40.0892 37.3125 40.1094 37.1914 40.1094 37.0703C40.1094 36.9492 40.1296 36.8281 40.1699 36.707C40.2507 36.3034 40.3112 36.0007 40.3516 35.7988C40.3919 35.597 40.4121 35.3952 40.4121 35.1934C40.3314 34.8301 40.291 34.6283 40.291 34.5879C40.3314 34.5475 40.3516 34.5072 40.3516 34.4668C40.3516 34.265 40.3314 34.0632 40.291 33.8613C40.2507 33.6191 40.2103 33.3971 40.1699 33.1953L40.2305 32.1055C40.3112 31.6615 40.3314 31.3991 40.291 31.3184C40.291 31.2376 40.291 31.1569 40.291 31.0762V29.502C40.291 29.2598 40.291 29.0176 40.291 28.7754C40.3314 28.4928 40.3516 28.2305 40.3516 27.9883C40.2708 27.5846 40.2305 27.3828 40.2305 27.3828C40.2708 27.3424 40.291 27.2819 40.291 27.2012C40.2507 26.7572 40.2305 26.4544 40.2305 26.293C40.2708 26.0911 40.2708 25.8893 40.2305 25.6875L40.1699 24.7793C40.1699 24.2546 40.1497 23.8509 40.1094 23.5684C40.1094 23.2454 40.1296 22.9225 40.1699 22.5996V20.9648C40.1699 20.6016 40.1497 20.3997 40.1094 20.3594C40.1094 20.2786 40.1094 20.1979 40.1094 20.1172C40.0286 19.5521 39.9883 19.209 39.9883 19.0879C40.0286 18.6439 40.0286 18.4219 39.9883 18.4219C39.9883 18.3815 39.9883 18.3411 39.9883 18.3008C40.0286 17.8971 40.0488 17.6953 40.0488 17.6953C40.0892 17.6953 40.1094 17.6751 40.1094 17.6348V16.8477C40.069 16.4036 40.0892 16.0605 40.1699 15.8184C40.2103 15.4551 40.2103 15.0918 40.1699 14.7285C40.1296 14.3249 40.1296 13.9414 40.1699 13.5781C40.2507 13.0938 40.2708 12.8112 40.2305 12.7305C40.2305 12.6094 40.2305 12.4883 40.2305 12.3672C40.2305 12.2057 40.2305 12.0443 40.2305 11.8828C40.2305 11.7214 40.2507 11.5397 40.291 11.3379C40.3717 10.9342 40.3717 10.6921 40.291 10.6113C40.2507 10.4902 40.2103 10.3691 40.1699 10.248C40.1699 9.80404 40.1296 9.38021 40.0488 8.97656C39.9681 8.69401 39.9277 8.53255 39.9277 8.49219C39.9681 8.45182 39.9883 8.39128 39.9883 8.31055C39.9883 8.14909 39.9681 8.00781 39.9277 7.88672C39.9277 7.72526 39.9681 7.60417 40.0488 7.52344C40.0488 6.9987 40.0488 6.67578 40.0488 6.55469C40.0892 6.39323 40.0892 6.21159 40.0488 6.00977C40.0085 5.80794 39.9681 5.6263 39.9277 5.46484C39.8874 5.30339 39.8672 5.14193 39.8672 4.98047C39.8672 4.85938 39.8672 4.7181 39.8672 4.55664C39.8672 4.35482 39.8874 4.15299 39.9277 3.95117C40.0892 3.4668 40.1699 3.16406 40.1699 3.04297C40.2103 2.88151 40.2708 2.76042 40.3516 2.67969C40.3919 2.55859 40.4525 2.47786 40.5332 2.4375C40.6543 2.35677 40.735 2.25586 40.7754 2.13477C40.9772 2.01367 41.179 1.93294 41.3809 1.89258C41.623 1.81185 41.8451 1.71094 42.0469 1.58984C42.4505 1.58984 42.6927 1.61003 42.7734 1.65039C42.8542 1.69076 42.9349 1.71094 43.0156 1.71094C43.4193 1.79167 43.6615 1.81185 43.7422 1.77148C43.8229 1.73112 43.9036 1.69076 43.9844 1.65039C44.1862 1.77148 44.3678 1.81185 44.5293 1.77148C44.7311 1.73112 44.9329 1.77148 45.1348 1.89258C45.5788 1.69076 45.9017 1.63021 46.1035 1.71094C46.3457 1.79167 46.5677 1.83203 46.7695 1.83203C47.375 1.8724 47.7383 1.89258 47.8594 1.89258C47.9805 1.85221 48.1419 1.85221 48.3438 1.89258C48.8281 1.93294 49.0905 1.97331 49.1309 2.01367C49.2116 2.01367 49.2923 2.01367 49.373 2.01367C49.6556 2.0944 49.8171 2.11458 49.8574 2.07422C49.9382 2.03385 50.0189 2.03385 50.0996 2.07422C50.1803 2.11458 50.2812 2.11458 50.4023 2.07422C50.5638 2.03385 50.7051 2.01367 50.8262 2.01367C51.2702 2.01367 51.5326 2.03385 51.6133 2.07422C51.7344 2.11458 51.8353 2.13477 51.916 2.13477C52.4004 2.0944 52.7031 2.0944 52.8242 2.13477C52.9453 2.13477 53.0462 2.13477 53.127 2.13477C53.5306 2.0944 53.7324 2.07422 53.7324 2.07422C53.7324 2.03385 53.7526 2.01367 53.793 2.01367H54.5195C54.6003 1.97331 54.7012 1.95312 54.8223 1.95312C54.9837 1.91276 55.1452 1.89258 55.3066 1.89258C55.5892 1.89258 55.8112 1.8724 55.9727 1.83203C56.1745 1.7513 56.3561 1.69076 56.5176 1.65039C56.679 1.61003 56.8405 1.63021 57.002 1.71094C57.5671 1.63021 57.9505 1.61003 58.1523 1.65039C58.3945 1.69076 58.556 1.71094 58.6367 1.71094C59.2826 1.83203 59.7064 1.93294 59.9082 2.01367C60.11 2.0944 60.3118 2.13477 60.5137 2.13477C60.9173 2.29622 61.1595 2.39714 61.2402 2.4375C61.321 2.47786 61.3815 2.53841 61.4219 2.61914C61.6641 2.74023 61.8053 2.82096 61.8457 2.86133C61.9264 2.86133 61.987 2.88151 62.0273 2.92188C62.431 3.16406 62.653 3.30534 62.6934 3.3457C62.7337 3.38607 62.7943 3.38607 62.875 3.3457C62.9557 3.4668 62.9961 3.58789 62.9961 3.70898C63.0365 3.78971 63.097 3.87044 63.1777 3.95117C63.3392 4.07227 63.5007 4.23372 63.6621 4.43555C63.9447 4.87956 64.1465 5.12174 64.2676 5.16211C64.3887 5.16211 64.4492 5.26302 64.4492 5.46484C64.651 5.6263 64.8125 5.84831 64.9336 6.13086C65.0951 6.41341 65.2363 6.71615 65.3574 7.03906C65.5996 7.48307 65.7611 7.74544 65.8418 7.82617L66.1445 8.49219C66.3464 8.73438 66.4674 8.89583 66.5078 8.97656C66.5482 9.05729 66.5885 9.13802 66.6289 9.21875C66.8307 9.46094 66.9316 9.6224 66.9316 9.70312C66.9316 9.74349 66.972 9.76367 67.0527 9.76367C67.3353 10.2884 67.5169 10.6921 67.5977 10.9746C67.7188 11.2572 67.9206 11.4792 68.2031 11.6406C68.1628 11.8424 68.2031 11.9635 68.3242 12.0039C68.4857 12.0039 68.5462 12.1452 68.5059 12.4277C68.627 12.4681 68.7077 12.5488 68.748 12.6699C68.8288 12.7507 68.9297 12.8314 69.0508 12.9121C69.1315 13.0332 69.1719 13.1543 69.1719 13.2754C69.2122 13.3965 69.2728 13.4974 69.3535 13.5781C69.6361 13.9818 69.8177 14.2643 69.8984 14.4258C69.9792 14.5872 70.0599 14.7689 70.1406 14.9707C70.2617 15.2129 70.3424 15.3945 70.3828 15.5156C70.4232 15.6367 70.4635 15.7376 70.5039 15.8184C70.5846 15.8991 70.625 16 70.625 16.1211C70.6654 16.2422 70.7461 16.3431 70.8672 16.4238C70.8268 16.5853 70.8268 16.7467 70.8672 16.9082C70.9479 17.0293 70.9883 17.1908 70.9883 17.3926C70.9479 17.7559 70.9277 17.9577 70.9277 17.998C70.9681 18.0384 70.9883 18.099 70.9883 18.1797C70.9883 18.3411 70.9681 18.5026 70.9277 18.6641C70.9277 18.7852 70.9277 18.9264 70.9277 19.0879C70.9277 19.3301 70.9277 19.5723 70.9277 19.8145C70.9681 20.0163 70.9479 20.1979 70.8672 20.3594C70.6654 20.763 70.5241 21.0456 70.4434 21.207L70.1406 21.8125C69.9388 22.0547 69.7975 22.2161 69.7168 22.2969C69.6764 22.3372 69.6562 22.4583 69.6562 22.6602C69.293 22.9023 69.0911 23.0638 69.0508 23.1445C69.0104 23.1849 68.9499 23.2253 68.8691 23.2656C68.4251 23.6289 68.1224 23.8913 67.9609 24.0527C67.5977 24.2949 67.3958 24.4564 67.3555 24.5371C67.3151 24.5775 67.2747 24.6178 67.2344 24.6582L66.6895 25.082C66.3665 25.2839 66.1243 25.526 65.9629 25.8086C65.64 25.9701 65.3978 26.1113 65.2363 26.2324L64.752 26.7168C64.4694 26.9186 64.3079 27.0195 64.2676 27.0195C64.2272 27.0195 64.1868 27.0397 64.1465 27.0801C63.9447 27.3223 63.8034 27.4232 63.7227 27.3828C63.6419 27.3424 63.5814 27.3424 63.541 27.3828C63.4603 27.5443 63.3392 27.6855 63.1777 27.8066C63.0566 27.8874 62.9154 27.9681 62.7539 28.0488C62.5117 28.291 62.3301 28.4727 62.209 28.5938C62.0879 28.6745 61.9668 28.7552 61.8457 28.8359C61.5632 29.0378 61.3815 29.1589 61.3008 29.1992C61.2604 29.2396 61.1999 29.3001 61.1191 29.3809ZM50.1602 25.2637C50.6445 25.3848 50.8867 25.4453 50.8867 25.4453C51.1693 25.5664 51.3509 25.6068 51.4316 25.5664C51.5124 25.526 51.6133 25.4857 51.7344 25.4453C52.138 25.2435 52.4206 25.1022 52.582 25.0215C52.7435 24.9408 52.8646 24.86 52.9453 24.7793C53.026 24.6986 53.127 24.6582 53.248 24.6582C53.4095 24.6178 53.5104 24.5371 53.5508 24.416C53.9544 24.2142 54.1764 24.0931 54.2168 24.0527C54.7012 23.8509 54.9837 23.7096 55.0645 23.6289C55.1452 23.5078 55.2461 23.4069 55.3672 23.3262C55.6901 23.084 55.9121 22.9225 56.0332 22.8418C56.1543 22.7207 56.2552 22.6198 56.3359 22.5391C56.6185 22.1354 56.8001 21.8932 56.8809 21.8125C57.002 21.6914 57.1029 21.5905 57.1836 21.5098C57.3854 21.1465 57.5065 20.9648 57.5469 20.9648C57.5872 20.9245 57.6478 20.8639 57.7285 20.7832C58.0111 20.4199 58.1725 20.2181 58.2129 20.1777C58.2936 20.1374 58.3542 20.097 58.3945 20.0566C58.556 19.7337 58.6367 19.4915 58.6367 19.3301C58.7578 19.2493 58.8184 19.1484 58.8184 19.0273C58.8587 18.9062 58.9193 18.8053 59 18.7246C59.0807 18.6439 59.1615 18.5632 59.2422 18.4824C59.3229 18.4017 59.4036 18.321 59.4844 18.2402C59.444 18.0788 59.444 17.9375 59.4844 17.8164C59.5651 17.6953 59.6257 17.5742 59.666 17.4531C59.7467 16.9688 59.7871 16.6458 59.7871 16.4844C59.8275 16.3229 59.8477 16.1413 59.8477 15.9395C59.8477 15.6973 59.8477 15.4753 59.8477 15.2734C59.8477 15.0716 59.8073 14.8698 59.7266 14.668C59.5247 14.224 59.4238 13.9616 59.4238 13.8809C59.4642 13.7598 59.4642 13.6589 59.4238 13.5781C59.2624 13.0534 59.0404 12.5892 58.7578 12.1855C58.6771 11.9837 58.5964 11.8223 58.5156 11.7012C58.4349 11.5397 58.3542 11.3783 58.2734 11.2168C58.0312 10.8939 57.8698 10.7122 57.7891 10.6719C57.7487 10.6315 57.7083 10.5911 57.668 10.5508C57.3854 10.1068 57.224 9.86458 57.1836 9.82422C56.8203 9.33984 56.4167 8.97656 55.9727 8.73438C55.6901 8.49219 55.5286 8.39128 55.4883 8.43164C55.4479 8.43164 55.4076 8.41146 55.3672 8.37109C55.2461 8.29036 55.1452 8.20964 55.0645 8.12891C54.9837 8.04818 54.903 7.96745 54.8223 7.88672C54.2572 7.64453 53.9746 7.52344 53.9746 7.52344C53.7728 7.48307 53.5508 7.46289 53.3086 7.46289C53.0664 7.46289 52.8444 7.46289 52.6426 7.46289C52.3197 7.50326 52.138 7.54362 52.0977 7.58398C52.0977 7.62435 52.0573 7.60417 51.9766 7.52344L51.6738 8.12891C51.6335 8.45182 51.5931 8.63346 51.5527 8.67383C51.5124 8.71419 51.4922 8.77474 51.4922 8.85547L51.3711 9.52148C51.25 9.96549 51.1693 10.3086 51.1289 10.5508C51.1289 10.793 51.1087 11.015 51.0684 11.2168C51.028 11.5801 50.9876 11.8424 50.9473 12.0039C50.9069 12.1654 50.8665 12.3268 50.8262 12.4883C50.7858 12.6901 50.7656 12.8717 50.7656 13.0332C50.7656 13.1947 50.7454 13.3763 50.7051 13.5781C50.6243 13.901 50.584 14.1634 50.584 14.3652L50.4023 15.0918C50.4023 15.2129 50.4225 15.3542 50.4629 15.5156C50.5033 15.6771 50.5234 15.8184 50.5234 15.9395C50.4831 16.1413 50.4629 16.2826 50.4629 16.3633C50.5033 16.444 50.4831 16.5247 50.4023 16.6055C50.4831 16.7266 50.5033 16.8477 50.4629 16.9688C50.4225 17.0898 50.4023 17.2513 50.4023 17.4531C50.2409 17.8971 50.1602 18.1797 50.1602 18.3008C50.2005 18.4219 50.2207 18.5632 50.2207 18.7246C50.14 19.0879 50.0996 19.2897 50.0996 19.3301C50.14 19.3301 50.1602 19.3704 50.1602 19.4512C50.1602 19.8145 50.1198 20.0163 50.0391 20.0566C49.9987 20.097 50.0189 20.1576 50.0996 20.2383C50.0189 20.6419 49.9583 20.8639 49.918 20.9043C49.8776 20.9447 49.8574 20.985 49.8574 21.0254C49.8574 21.5501 49.8372 21.974 49.7969 22.2969C49.7565 22.5794 49.7161 22.8822 49.6758 23.2051C49.6354 23.4876 49.6152 23.7096 49.6152 23.8711C49.6556 23.9922 49.6758 24.0931 49.6758 24.1738C49.7161 24.6582 49.7969 24.9408 49.918 25.0215C50.0391 25.1022 50.1198 25.1829 50.1602 25.2637ZM88.4258 2.19531C88.7083 3.16406 88.7487 4.17318 88.5469 5.22266C88.5469 5.54557 88.5065 5.76758 88.4258 5.88867C88.4258 6.00977 88.446 6.13086 88.4863 6.25195C88.5267 6.37305 88.5469 6.47396 88.5469 6.55469C88.4661 6.8776 88.4258 7.05924 88.4258 7.09961C88.4661 7.13997 88.4863 7.20052 88.4863 7.28125C88.4056 7.48307 88.3652 7.66471 88.3652 7.82617C88.4056 7.94727 88.4258 8.10872 88.4258 8.31055C88.4258 8.51237 88.4056 8.69401 88.3652 8.85547C88.3249 9.01693 88.2845 9.19857 88.2441 9.40039C88.2038 9.68294 88.1836 9.96549 88.1836 10.248C88.224 10.4902 88.1836 10.7324 88.0625 10.9746C88.1029 11.3783 88.123 11.7214 88.123 12.0039C88.1634 12.2461 88.1634 12.4883 88.123 12.7305C88.0827 13.013 88.0625 13.235 88.0625 13.3965C88.0625 13.4772 88.0423 13.5781 88.002 13.6992C87.9616 13.8203 87.9818 13.9414 88.0625 14.0625C87.9414 14.5065 87.8809 14.8092 87.8809 14.9707C87.8809 15.0918 87.8607 15.2734 87.8203 15.5156C87.8607 15.7174 87.8809 16 87.8809 16.3633C87.8809 16.7266 87.8607 17.0091 87.8203 17.2109C87.7799 17.3724 87.7598 17.5339 87.7598 17.6953C87.7598 17.8568 87.7598 18.0182 87.7598 18.1797C87.679 18.7044 87.6589 19.0475 87.6992 19.209C87.7396 19.3704 87.7598 19.5319 87.7598 19.6934C87.7598 20.0566 87.7396 20.2585 87.6992 20.2988C87.6992 20.2988 87.6992 20.3392 87.6992 20.4199C87.6992 20.8236 87.679 21.0859 87.6387 21.207C87.6387 21.2878 87.6387 21.3887 87.6387 21.5098C87.6387 21.6309 87.6589 21.7721 87.6992 21.9336C87.7396 22.0547 87.7598 22.196 87.7598 22.3574C87.6387 23.2051 87.6387 23.8711 87.7598 24.3555C87.679 24.8398 87.6589 25.2031 87.6992 25.4453C87.7799 25.6471 87.8203 25.8086 87.8203 25.9297C87.8203 26.1315 87.8001 26.293 87.7598 26.4141C87.7598 26.5352 87.7799 26.6966 87.8203 26.8984C87.8203 27.3424 87.8405 27.6654 87.8809 27.8672C87.9212 28.069 87.9414 28.2305 87.9414 28.3516C87.9414 28.513 87.9212 28.6745 87.8809 28.8359C87.8809 28.957 87.9212 29.0983 88.002 29.2598C87.8809 29.4616 87.8607 29.7643 87.9414 30.168C87.9414 30.2487 87.9414 30.3698 87.9414 30.5312C87.9818 30.6523 88.0221 30.7533 88.0625 30.834C88.0625 31.3184 88.0625 31.5605 88.0625 31.5605C88.0625 31.8835 88.0423 32.0651 88.002 32.1055C88.002 32.1055 88.002 32.1458 88.002 32.2266C87.9616 32.5495 87.9414 32.7311 87.9414 32.7715C87.9818 32.8118 88.002 32.8522 88.002 32.8926C87.9212 33.3366 87.901 33.5788 87.9414 33.6191C87.9818 33.6191 88.002 33.6393 88.002 33.6797C87.9616 34.2448 87.9616 34.5879 88.002 34.709C88.123 35.2741 88.1836 35.5566 88.1836 35.5566C88.224 35.7181 88.224 35.8796 88.1836 36.041C88.1836 36.2025 88.224 36.3639 88.3047 36.5254C88.4661 36.8887 88.8092 37.1309 89.334 37.252C89.6973 37.3327 90.0202 37.373 90.3027 37.373C90.5853 37.3327 90.8678 37.3529 91.1504 37.4336L92.0586 37.6152C92.4219 37.696 92.6439 37.7565 92.7246 37.7969C92.8053 37.7969 92.8861 37.7969 92.9668 37.7969C93.209 37.7969 93.3704 37.7969 93.4512 37.7969C93.5723 37.7565 93.6732 37.7565 93.7539 37.7969C94.0768 37.7969 94.3796 37.8372 94.6621 37.918C94.9447 37.9583 95.2474 37.8978 95.5703 37.7363C95.7318 37.8171 95.873 37.8171 95.9941 37.7363C96.1556 37.6556 96.3171 37.6152 96.4785 37.6152C96.7207 37.6152 96.9023 37.6152 97.0234 37.6152C97.1849 37.5749 97.3665 37.5345 97.5684 37.4941C98.0527 37.4134 98.2949 37.373 98.2949 37.373C98.6178 37.252 98.86 37.2116 99.0215 37.252C99.1829 37.252 99.3242 37.1914 99.4453 37.0703C99.4857 36.6263 99.5059 36.1217 99.5059 35.5566C99.5462 34.9915 99.526 34.4466 99.4453 33.9219C99.3646 33.4375 99.3242 32.9935 99.3242 32.5898C99.2839 32.2266 99.2637 31.8835 99.2637 31.5605C99.304 31.2376 99.304 30.8945 99.2637 30.5312C99.2637 30.2083 99.2435 29.9863 99.2031 29.8652C99.2031 29.7038 99.2031 29.5423 99.2031 29.3809C99.2031 29.2598 99.1829 29.1387 99.1426 29.0176C99.1426 28.8965 99.1628 28.7956 99.2031 28.7148C99.2031 28.2708 99.1829 27.9076 99.1426 27.625C99.1022 27.3424 99.082 27.0801 99.082 26.8379C99.082 26.4746 99.0618 26.1315 99.0215 25.8086C99.0215 25.4453 99.0013 25.1022 98.9609 24.7793C98.9609 24.3353 98.9408 23.9518 98.9004 23.6289C98.8197 23.5078 98.7995 23.3464 98.8398 23.1445C98.8802 22.9427 98.9004 22.7409 98.9004 22.5391C98.8197 22.0143 98.7591 21.6107 98.7188 21.3281C98.6784 21.1263 98.638 20.8639 98.5977 20.541C98.5977 20.1777 98.6178 19.8346 98.6582 19.5117C98.5371 19.3099 98.4766 19.0879 98.4766 18.8457C98.4766 18.5632 98.4564 18.2604 98.416 17.9375C98.3757 17.3724 98.3353 16.9688 98.2949 16.7266C98.2546 16.4844 98.2344 16.2624 98.2344 16.0605C98.2747 15.8184 98.2546 15.6367 98.1738 15.5156C98.1335 15.3542 98.1133 15.2331 98.1133 15.1523C98.0729 14.8294 98.0729 14.6276 98.1133 14.5469C98.1536 14.4258 98.1536 14.3249 98.1133 14.2441L97.8711 13.0332C97.9115 12.4277 97.9115 12.0645 97.8711 11.9434C97.8711 11.7819 97.8711 11.6003 97.8711 11.3984C97.8307 11.0352 97.8307 10.7728 97.8711 10.6113C97.9518 10.4095 97.972 10.2077 97.9316 10.0059C97.9316 9.88477 97.9115 9.78385 97.8711 9.70312C97.8307 9.58203 97.7904 9.44076 97.75 9.2793C97.8711 9.07747 97.8913 8.87565 97.8105 8.67383C97.7702 8.47201 97.75 8.22982 97.75 7.94727C97.7904 7.70508 97.7702 7.54362 97.6895 7.46289C97.6491 7.38216 97.6289 7.30143 97.6289 7.2207C97.6289 6.97852 97.6491 6.77669 97.6895 6.61523C97.7298 6.45378 97.7096 6.27214 97.6289 6.07031L97.5684 5.22266C97.6087 5.10156 97.6491 5.00065 97.6895 4.91992C97.7702 4.79883 97.8105 4.67773 97.8105 4.55664C97.8105 4.39518 97.7904 4.25391 97.75 4.13281C97.75 3.97135 97.7702 3.8099 97.8105 3.64844L98.1738 2.86133C98.416 2.53841 98.5977 2.37695 98.7188 2.37695C98.8398 2.33659 98.9408 2.27604 99.0215 2.19531C99.1022 2.27604 99.2031 2.29622 99.3242 2.25586C99.4453 2.17513 99.5664 2.11458 99.6875 2.07422C99.7682 2.07422 99.8691 2.0944 99.9902 2.13477C100.111 2.13477 100.232 2.13477 100.354 2.13477C100.757 2.17513 100.979 2.19531 101.02 2.19531C101.1 2.19531 101.181 2.17513 101.262 2.13477C101.423 2.13477 101.564 2.15495 101.686 2.19531C101.847 2.19531 102.029 2.19531 102.23 2.19531C102.392 2.19531 102.553 2.19531 102.715 2.19531C102.917 2.15495 103.078 2.15495 103.199 2.19531C103.845 2.31641 104.35 2.37695 104.713 2.37695C105.117 2.37695 105.439 2.45768 105.682 2.61914C105.843 2.57878 105.964 2.53841 106.045 2.49805C106.166 2.45768 106.287 2.41732 106.408 2.37695C106.65 2.37695 106.812 2.39714 106.893 2.4375C107.014 2.47786 107.115 2.49805 107.195 2.49805C107.841 2.37695 108.265 2.31641 108.467 2.31641C108.709 2.27604 108.951 2.29622 109.193 2.37695C109.153 2.82096 109.133 3.22461 109.133 3.58789C109.173 3.91081 109.173 4.29427 109.133 4.73828C109.092 5.22266 109.072 5.48503 109.072 5.52539C109.113 5.52539 109.113 5.58594 109.072 5.70703C109.032 5.82812 109.012 5.98958 109.012 6.19141C109.012 6.35286 108.992 6.49414 108.951 6.61523C108.83 7.09961 108.77 7.44271 108.77 7.64453C108.77 7.84635 108.77 8.06836 108.77 8.31055C108.689 8.71419 108.648 9.01693 108.648 9.21875C108.648 9.42057 108.648 9.58203 108.648 9.70312C108.689 9.82422 108.709 9.96549 108.709 10.127C108.628 10.4902 108.588 10.6921 108.588 10.7324C108.628 10.7728 108.628 10.8535 108.588 10.9746C108.588 11.1361 108.568 11.2773 108.527 11.3984C108.487 11.5195 108.467 11.6406 108.467 11.7617C108.467 11.8424 108.467 11.9434 108.467 12.0645C108.507 12.1855 108.527 12.3066 108.527 12.4277C108.447 12.7507 108.406 13.013 108.406 13.2148C108.406 13.4167 108.386 13.5983 108.346 13.7598C108.346 13.8809 108.346 14.0221 108.346 14.1836C108.346 14.5872 108.346 14.9707 108.346 15.334C108.386 15.6973 108.386 16.0404 108.346 16.3633C108.346 16.5651 108.285 16.7871 108.164 17.0293C108.204 17.1908 108.204 17.3522 108.164 17.5137C108.164 17.6348 108.184 17.7559 108.225 17.877C108.305 18.6439 108.305 19.2292 108.225 19.6328C108.184 20.0365 108.204 20.4199 108.285 20.7832C108.285 21.3483 108.305 21.6914 108.346 21.8125C108.386 21.9336 108.406 22.0749 108.406 22.2363C108.406 22.64 108.406 22.8822 108.406 22.9629C108.447 23.0033 108.487 23.0638 108.527 23.1445C108.487 23.4271 108.467 23.6491 108.467 23.8105C108.507 23.9316 108.527 24.0326 108.527 24.1133C108.568 24.3555 108.568 24.5977 108.527 24.8398C108.527 25.2031 108.568 25.5462 108.648 25.8691C108.729 26.3535 108.77 26.9186 108.77 27.5645C108.77 28.1699 108.749 28.735 108.709 29.2598C108.669 29.4616 108.689 29.7643 108.77 30.168V31.0762C108.85 31.6009 108.891 31.944 108.891 32.1055C108.891 32.3073 108.87 32.5293 108.83 32.7715C108.79 32.9733 108.77 33.1549 108.77 33.3164C108.85 33.7604 108.87 34.1035 108.83 34.3457C108.83 34.5475 108.83 34.7897 108.83 35.0723C108.83 35.3548 108.85 35.6172 108.891 35.8594C108.931 36.0612 108.951 36.263 108.951 36.4648C108.911 36.707 108.931 36.9694 109.012 37.252V38.1602C109.052 38.362 109.072 38.584 109.072 38.8262C109.072 39.028 109.092 39.2702 109.133 39.5527C109.133 40.1986 109.193 40.6628 109.314 40.9453C109.436 41.2279 109.496 41.5508 109.496 41.9141C109.456 42.1562 109.415 42.4792 109.375 42.8828C109.375 43.2461 109.415 43.5892 109.496 43.9121C109.577 44.3965 109.617 44.7598 109.617 45.002C109.617 45.2038 109.617 45.4056 109.617 45.6074C109.658 45.7285 109.698 45.8496 109.738 45.9707C109.779 46.0918 109.799 46.2129 109.799 46.334C109.516 46.5762 109.335 46.7174 109.254 46.7578C109.173 46.7578 109.092 46.7982 109.012 46.8789C108.608 47 108.346 47.0807 108.225 47.1211C108.104 47.2018 107.962 47.2624 107.801 47.3027C107.478 47.3835 107.296 47.4238 107.256 47.4238C107.215 47.4642 107.155 47.5046 107.074 47.5449C106.63 47.6257 106.348 47.6458 106.227 47.6055C106.105 47.6055 105.984 47.6257 105.863 47.666C105.581 47.7467 105.318 47.8073 105.076 47.8477C104.834 47.9284 104.592 48.0091 104.35 48.0898C104.148 48.1302 103.946 48.1504 103.744 48.1504C103.583 48.1504 103.401 48.1706 103.199 48.2109C102.674 48.3724 102.291 48.4531 102.049 48.4531C101.605 48.3724 101.363 48.332 101.322 48.332C101.322 48.3724 101.302 48.3926 101.262 48.3926C101.02 48.3118 100.878 48.2109 100.838 48.0898C100.838 48.0091 100.818 47.9284 100.777 47.8477C100.576 47.444 100.454 47.222 100.414 47.1816C100.414 47.1816 100.414 47.1615 100.414 47.1211C100.253 47.0404 100.172 46.9395 100.172 46.8184C100.212 46.6973 100.192 46.5964 100.111 46.5156C99.9095 46.0716 99.8086 45.8294 99.8086 45.7891C99.7279 45.5065 99.6875 45.2441 99.6875 45.002C99.6875 44.7598 99.6673 44.5176 99.627 44.2754C99.1426 44.3965 98.9004 44.4974 98.9004 44.5781C98.9004 44.6185 98.86 44.6387 98.7793 44.6387C98.4564 44.8405 98.2546 44.9818 98.1738 45.0625C98.1335 45.1029 98.0729 45.1634 97.9922 45.2441C97.8711 45.3249 97.6491 45.446 97.3262 45.6074C97.0033 45.8496 96.8216 45.9707 96.7812 45.9707C96.7409 45.9303 96.6803 45.9102 96.5996 45.9102C96.2767 46.112 96.0951 46.2129 96.0547 46.2129C96.0143 46.2129 95.974 46.2331 95.9336 46.2734C95.6107 46.4349 95.3685 46.5358 95.207 46.5762C95.0456 46.5762 94.9043 46.5964 94.7832 46.6367C94.5007 46.8385 94.3392 46.9395 94.2988 46.9395C94.2585 46.9395 94.2181 46.9596 94.1777 47C93.8952 47.1211 93.6732 47.1816 93.5117 47.1816C93.3503 47.1816 93.2292 47.2422 93.1484 47.3633C92.6641 47.4036 92.3411 47.4238 92.1797 47.4238C92.0182 47.4642 91.8971 47.5247 91.8164 47.6055C91.7357 47.5651 91.6146 47.5651 91.4531 47.6055C91.332 47.6458 91.1908 47.6458 91.0293 47.6055C90.666 47.6055 90.3431 47.5449 90.0605 47.4238C89.5762 47.3027 89.2936 47.222 89.2129 47.1816C89.1322 47.1816 89.0514 47.1615 88.9707 47.1211C88.7689 47 88.5872 46.9596 88.4258 47C88.3047 47 88.1836 46.9798 88.0625 46.9395C87.8607 46.8991 87.6589 46.8385 87.457 46.7578C87.2956 46.6367 87.1341 46.6165 86.9727 46.6973C86.5286 46.4954 86.2461 46.3945 86.125 46.3945C86.0039 46.3945 85.8828 46.3743 85.7617 46.334C85.1562 46.0918 84.7324 45.9707 84.4902 45.9707C84.2884 45.9707 84.0462 45.9303 83.7637 45.8496C83.3197 45.6882 83.0775 45.6074 83.0371 45.6074C83.0371 45.5671 83.0169 45.5469 82.9766 45.5469C82.7344 45.3854 82.5124 45.2845 82.3105 45.2441C82.1491 45.2038 81.9876 45.1634 81.8262 45.123C81.3822 45.002 81.14 44.9212 81.0996 44.8809C81.0996 44.8405 81.0592 44.8001 80.9785 44.7598C80.6556 44.5983 80.4538 44.4974 80.373 44.457C79.8887 44.1745 79.5859 44.013 79.4648 43.9727C79.3841 43.8919 79.3034 43.8112 79.2227 43.7305C78.9401 43.6094 78.7181 43.5085 78.5566 43.4277C78.153 42.9837 77.8704 42.681 77.709 42.5195C77.5475 42.3177 77.4264 42.1159 77.3457 41.9141C77.3457 41.5911 77.3457 41.3893 77.3457 41.3086C77.3861 41.1875 77.3861 41.0664 77.3457 40.9453C77.3457 40.4206 77.3053 40.0371 77.2246 39.7949L77.2852 38.8262C77.2448 38.0996 77.265 37.373 77.3457 36.6465C77.3457 36.5254 77.3457 36.4043 77.3457 36.2832C77.3457 36.1621 77.3457 36.0612 77.3457 35.9805C77.3457 35.5768 77.3659 35.3145 77.4062 35.1934C77.4466 35.0319 77.4668 34.8503 77.4668 34.6484C77.4668 34.1641 77.5072 33.7604 77.5879 33.4375C77.6283 33.3164 77.6283 33.1146 77.5879 32.832C77.5879 32.5091 77.6081 32.2669 77.6484 32.1055C77.6888 31.5807 77.7292 31.2578 77.7695 31.1367C77.8099 31.0156 77.8301 30.8945 77.8301 30.7734C77.8301 30.3294 77.8099 30.0671 77.7695 29.9863C77.7695 29.8652 77.8099 29.7643 77.8906 29.6836C77.8099 29.6029 77.7695 29.4616 77.7695 29.2598C77.8099 29.0176 77.7897 28.8158 77.709 28.6543C77.7897 28.2103 77.8099 27.9076 77.7695 27.7461C77.7695 27.5443 77.7493 27.403 77.709 27.3223C77.6686 27.0397 77.6484 26.8581 77.6484 26.7773C77.6888 26.6562 77.709 26.5352 77.709 26.4141L77.6484 25.082C77.5273 24.4362 77.4668 23.9922 77.4668 23.75C77.5072 23.4674 77.5072 23.1849 77.4668 22.9023C77.4668 22.7005 77.4466 22.5189 77.4062 22.3574C77.4062 22.1556 77.4062 21.9538 77.4062 21.752V20.9648C77.3659 20.8034 77.3457 20.6621 77.3457 20.541C77.3457 20.4199 77.3053 20.2988 77.2246 20.1777L77.2852 18.9668C77.3255 18.6842 77.3457 18.4421 77.3457 18.2402C77.3861 18.0384 77.4062 17.8366 77.4062 17.6348C77.4062 17.5137 77.3659 17.3724 77.2852 17.2109C77.2448 17.0091 77.2246 16.8275 77.2246 16.666C77.2246 16.5449 77.2246 16.3633 77.2246 16.1211C77.265 15.8385 77.265 15.5964 77.2246 15.3945C77.2246 15.2331 77.2044 15.0918 77.1641 14.9707C77.1237 14.8496 77.1035 14.6882 77.1035 14.4863C77.0228 14.2845 77.0026 14.0625 77.043 13.8203C77.1237 13.5781 77.1641 13.3359 77.1641 13.0938C77.043 12.7708 77.0026 12.5892 77.043 12.5488C77.0833 12.5085 77.1035 12.4681 77.1035 12.4277C77.1035 11.9434 77.0833 11.5801 77.043 11.3379C77.043 11.0553 76.9824 10.8132 76.8613 10.6113C76.8613 10.1673 76.8411 9.94531 76.8008 9.94531C76.8008 9.94531 76.8008 9.92513 76.8008 9.88477C76.8008 9.40039 76.7806 9.09766 76.7402 8.97656C76.7402 8.8151 76.7201 8.67383 76.6797 8.55273C76.6393 8.31055 76.6191 8.08854 76.6191 7.88672C76.6191 7.64453 76.6191 7.42253 76.6191 7.2207L76.5586 6.37305C76.5182 6.17122 76.498 6.00977 76.498 5.88867C76.498 5.72721 76.4577 5.58594 76.377 5.46484C76.2962 4.98047 76.2962 4.51628 76.377 4.07227C76.4577 3.62826 76.4173 3.24479 76.2559 2.92188C76.377 2.59896 76.4577 2.39714 76.498 2.31641C76.5788 2.23568 76.6595 2.15495 76.7402 2.07422C76.9824 1.83203 77.1439 1.65039 77.2246 1.5293C77.5475 1.5293 77.8099 1.50911 78.0117 1.46875C78.2135 1.38802 78.4154 1.42839 78.6172 1.58984C79.1016 1.58984 79.3639 1.58984 79.4043 1.58984C79.4447 1.54948 79.485 1.5293 79.5254 1.5293C79.9694 1.56966 80.2318 1.58984 80.3125 1.58984C80.3932 1.58984 80.474 1.63021 80.5547 1.71094C80.7969 1.67057 80.9987 1.69076 81.1602 1.77148C81.362 1.81185 81.6042 1.83203 81.8867 1.83203C82.3711 1.79167 82.7546 1.79167 83.0371 1.83203C83.36 1.8724 83.6426 1.8724 83.8848 1.83203C84.4499 1.91276 84.8132 1.95312 84.9746 1.95312C85.1361 1.91276 85.2975 1.8724 85.459 1.83203C85.5801 1.83203 85.7012 1.85221 85.8223 1.89258C85.9837 1.93294 86.125 1.91276 86.2461 1.83203C86.7708 1.8724 87.1341 1.91276 87.3359 1.95312C87.5781 1.99349 87.8001 1.99349 88.002 1.95312L88.4258 2.19531ZM143.039 2.01367C143.322 2.29622 143.463 2.47786 143.463 2.55859C143.463 2.63932 143.483 2.72005 143.523 2.80078C143.604 3.08333 143.624 3.36589 143.584 3.64844C143.584 3.93099 143.564 4.27409 143.523 4.67773C143.483 4.87956 143.463 5.0612 143.463 5.22266C143.503 5.38411 143.503 5.52539 143.463 5.64648C143.423 5.76758 143.362 5.88867 143.281 6.00977C143.241 6.09049 143.201 6.17122 143.16 6.25195C143.12 6.53451 143.1 6.73633 143.1 6.85742C143.14 6.97852 143.14 7.07943 143.1 7.16016C142.979 7.52344 142.938 7.78581 142.979 7.94727C143.019 8.06836 143.039 8.20964 143.039 8.37109C143.039 8.85547 142.979 9.13802 142.857 9.21875C142.777 9.25911 142.736 9.31966 142.736 9.40039C142.817 9.60221 142.837 9.76367 142.797 9.88477C142.757 10.0059 142.716 10.1673 142.676 10.3691C142.595 10.8132 142.514 11.1159 142.434 11.2773C142.393 11.3984 142.353 11.5397 142.312 11.7012C142.151 11.9837 142.03 12.1452 141.949 12.1855C141.909 12.2259 141.868 12.2865 141.828 12.3672C141.424 12.4479 141.162 12.4883 141.041 12.4883C140.92 12.4479 140.799 12.4277 140.678 12.4277C140.193 12.4277 139.891 12.4076 139.77 12.3672C139.689 12.2865 139.588 12.2259 139.467 12.1855C139.346 12.1048 139.204 12.0846 139.043 12.125C138.922 12.1654 138.781 12.1452 138.619 12.0645C138.256 11.9837 137.953 11.9635 137.711 12.0039C137.509 12.0039 137.287 12.0039 137.045 12.0039C136.843 12.0039 136.641 12.0039 136.439 12.0039C136.278 11.9635 136.096 11.903 135.895 11.8223C135.773 11.903 135.632 11.9232 135.471 11.8828C135.309 11.8424 135.128 11.8223 134.926 11.8223C134.805 11.7819 134.663 11.7819 134.502 11.8223C134.381 11.8626 134.24 11.8626 134.078 11.8223C133.997 12.0645 133.957 12.3066 133.957 12.5488C133.997 12.7507 134.018 12.9727 134.018 13.2148C133.977 13.6589 133.957 13.8809 133.957 13.8809L134.078 14.668C134.078 14.7891 134.078 14.9102 134.078 15.0312C134.118 15.1523 134.139 15.2734 134.139 15.3945C134.139 15.5964 134.118 15.8184 134.078 16.0605C134.038 16.3027 134.018 16.5247 134.018 16.7266L134.199 17.8164C134.199 18.1393 134.159 18.4421 134.078 18.7246C134.038 18.9668 134.058 19.209 134.139 19.4512C134.098 19.8952 134.118 20.2383 134.199 20.4805C134.199 20.6823 134.179 20.8639 134.139 21.0254C134.139 21.1868 134.159 21.3281 134.199 21.4492C134.118 21.9336 134.098 22.2565 134.139 22.418C134.179 22.5794 134.199 22.7005 134.199 22.7812C134.199 22.9023 134.179 23.0234 134.139 23.1445C134.098 23.2656 134.078 23.3867 134.078 23.5078C134.078 23.9115 134.098 24.1738 134.139 24.2949C134.179 24.3757 134.159 24.4564 134.078 24.5371C134.159 24.8197 134.199 25.082 134.199 25.3242C134.199 25.5664 134.219 25.8288 134.26 26.1113C134.3 26.4342 134.34 26.6159 134.381 26.6562C134.421 26.6966 134.441 26.737 134.441 26.7773C134.401 27.0195 134.421 27.2617 134.502 27.5039V28.291C134.502 28.6139 134.482 28.9368 134.441 29.2598C134.441 29.5827 134.462 29.9258 134.502 30.2891C134.502 30.4909 134.482 30.6725 134.441 30.834C134.441 30.9551 134.482 31.0762 134.562 31.1973C134.562 31.6009 134.542 31.8229 134.502 31.8633C134.502 31.9036 134.502 31.9642 134.502 32.0449C134.583 32.5697 134.583 33.2155 134.502 33.9824L134.562 35.1328V35.7988C134.562 36.0814 134.562 36.3639 134.562 36.6465C134.603 36.8887 134.623 37.151 134.623 37.4336C134.663 38.0794 134.704 38.4629 134.744 38.584C134.785 39.0684 134.785 39.3711 134.744 39.4922C134.744 39.6133 134.744 39.7142 134.744 39.7949C134.785 39.9967 134.805 40.1986 134.805 40.4004C134.805 40.5618 134.825 40.7233 134.865 40.8848C134.906 41.3691 134.926 41.6719 134.926 41.793C134.966 41.8737 134.986 41.9948 134.986 42.1562L135.047 43.0039C135.087 43.6094 135.128 43.9928 135.168 44.1543C135.329 44.679 135.37 45.0221 135.289 45.1836C135.289 45.3854 135.309 45.5267 135.35 45.6074C135.39 45.6882 135.43 45.7689 135.471 45.8496C135.39 46.2129 135.35 46.4349 135.35 46.5156C135.39 46.5964 135.41 46.6973 135.41 46.8184C135.087 47.1009 134.865 47.2422 134.744 47.2422C134.663 47.2826 134.583 47.3027 134.502 47.3027H133.533C133.251 47.3431 132.847 47.3431 132.322 47.3027H131.232C130.829 47.3431 130.607 47.3431 130.566 47.3027C130.526 47.3027 130.465 47.3027 130.385 47.3027C130.062 47.3027 129.84 47.3027 129.719 47.3027C129.598 47.3431 129.477 47.3633 129.355 47.3633C128.831 47.4036 128.508 47.4238 128.387 47.4238C128.306 47.4642 128.205 47.5046 128.084 47.5449C127.68 47.5449 127.438 47.5449 127.357 47.5449C127.317 47.5853 127.236 47.5853 127.115 47.5449C126.913 47.5046 126.772 47.4844 126.691 47.4844C126.611 47.4844 126.53 47.4844 126.449 47.4844C126.247 47.4844 126.066 47.4844 125.904 47.4844C125.783 47.5247 125.622 47.5449 125.42 47.5449C124.976 47.5046 124.673 47.4844 124.512 47.4844C124.391 47.5247 124.249 47.5046 124.088 47.4238C123.805 47.3431 123.604 47.2422 123.482 47.1211C123.321 46.8385 123.2 46.6771 123.119 46.6367C123.079 46.556 123.018 46.4551 122.938 46.334C122.978 46.2533 122.978 46.1523 122.938 46.0312C122.897 45.9102 122.877 45.7689 122.877 45.6074C122.877 45.4056 122.897 45.1836 122.938 44.9414C122.978 44.6992 122.998 44.457 122.998 44.2148C123.038 43.9727 123.038 43.8314 122.998 43.791C122.998 43.7103 123.018 43.6296 123.059 43.5488C123.018 43.3874 123.018 43.2663 123.059 43.1855C123.099 43.0645 123.119 42.9635 123.119 42.8828C123.16 42.6406 123.18 42.3984 123.18 42.1562C123.18 41.9141 123.2 41.6719 123.24 41.4297C123.361 40.9453 123.402 40.6224 123.361 40.4609C123.321 40.2995 123.321 40.138 123.361 39.9766C123.442 39.5729 123.462 39.3711 123.422 39.3711C123.422 39.3307 123.422 39.2904 123.422 39.25C123.422 38.806 123.442 38.5638 123.482 38.5234C123.523 38.4831 123.543 38.4427 123.543 38.4023C123.543 38.3216 123.543 38.2005 123.543 38.0391C123.583 37.8776 123.604 37.696 123.604 37.4941C123.684 36.929 123.725 36.5859 123.725 36.4648C123.684 36.0612 123.664 35.8594 123.664 35.8594C123.704 35.8594 123.725 35.8392 123.725 35.7988C123.725 35.597 123.725 35.4557 123.725 35.375C123.725 35.2943 123.745 35.2135 123.785 35.1328C123.785 34.8503 123.785 34.6888 123.785 34.6484C123.826 34.5677 123.846 34.487 123.846 34.4062C123.765 33.9219 123.725 33.6393 123.725 33.5586C123.765 33.4375 123.785 33.2962 123.785 33.1348C123.704 32.4889 123.704 32.0046 123.785 31.6816C123.745 31.4395 123.725 31.278 123.725 31.1973C123.765 31.1165 123.785 31.0358 123.785 30.9551C123.785 30.834 123.765 30.7129 123.725 30.5918C123.725 30.4707 123.745 30.3092 123.785 30.1074C123.785 29.6634 123.785 29.3405 123.785 29.1387C123.826 28.8965 123.846 28.6341 123.846 28.3516C123.765 27.7865 123.704 27.4434 123.664 27.3223C123.664 27.2012 123.684 27.0801 123.725 26.959C123.725 26.3535 123.725 25.9499 123.725 25.748C123.765 25.5462 123.785 25.3444 123.785 25.1426C123.785 24.8197 123.765 24.5371 123.725 24.2949C123.725 24.0124 123.745 23.7096 123.785 23.3867C123.785 23.2253 123.805 23.1042 123.846 23.0234C123.926 22.9427 123.947 22.8014 123.906 22.5996C123.947 22.4785 123.947 22.2363 123.906 21.873C123.906 21.4694 123.906 21.1667 123.906 20.9648C123.947 20.763 123.987 20.6016 124.027 20.4805C124.068 20.3594 124.068 20.1777 124.027 19.9355C124.027 19.6934 124.027 19.5319 124.027 19.4512C124.027 19.3301 124.027 19.209 124.027 19.0879C124.068 18.5632 124.068 18.1999 124.027 17.998C123.987 17.7962 123.967 17.5944 123.967 17.3926C123.967 17.1908 123.967 17.0293 123.967 16.9082C124.007 16.7467 124.027 16.6055 124.027 16.4844C124.027 16.1615 124.027 15.8385 124.027 15.5156C124.027 15.1523 123.987 14.8092 123.906 14.4863C123.906 14.0827 123.906 13.8405 123.906 13.7598C123.947 13.6387 123.947 13.4772 123.906 13.2754C123.906 13.0736 123.886 12.8919 123.846 12.7305C123.846 12.5286 123.846 12.3066 123.846 12.0645C123.402 12.1452 123.079 12.1855 122.877 12.1855C122.675 12.2259 122.473 12.2663 122.271 12.3066C122.11 12.3066 121.928 12.3268 121.727 12.3672C121.283 12.4076 121.061 12.4277 121.061 12.4277C121.061 12.3874 121.04 12.3672 121 12.3672C120.677 12.4883 120.475 12.5488 120.395 12.5488C120.314 12.5488 120.213 12.569 120.092 12.6094C119.729 12.6497 119.486 12.6901 119.365 12.7305C119.285 12.7708 119.204 12.791 119.123 12.791C118.921 12.8314 118.719 12.8516 118.518 12.8516C118.356 12.8112 118.174 12.8314 117.973 12.9121L117.307 13.0332C116.943 13.0332 116.721 13.0332 116.641 13.0332C116.6 12.9928 116.54 12.9928 116.459 13.0332C116.015 13.1543 115.753 13.235 115.672 13.2754C115.632 13.3158 115.571 13.3561 115.49 13.3965C115.167 13.3561 114.986 13.3561 114.945 13.3965C114.905 13.3965 114.865 13.3965 114.824 13.3965C114.501 13.2754 114.34 13.1947 114.34 13.1543C114.34 13.0736 114.299 13.0534 114.219 13.0938C114.178 12.9323 114.118 12.7708 114.037 12.6094C113.956 12.4479 113.896 12.2663 113.855 12.0645C113.815 11.8626 113.815 11.6406 113.855 11.3984C113.936 11.1562 113.997 10.9141 114.037 10.6719C114.077 10.3893 114.098 10.1673 114.098 10.0059C114.138 9.64258 114.199 9.38021 114.279 9.21875C114.239 8.8151 114.219 8.55273 114.219 8.43164C114.219 8.27018 114.239 8.12891 114.279 8.00781C114.36 7.5638 114.461 7.30143 114.582 7.2207C114.582 6.69596 114.602 6.35286 114.643 6.19141C114.764 5.86849 114.804 5.64648 114.764 5.52539C114.764 5.36393 114.784 5.20247 114.824 5.04102C114.824 4.87956 114.844 4.73828 114.885 4.61719C114.925 4.49609 114.945 4.33464 114.945 4.13281C114.986 3.85026 115.006 3.56771 115.006 3.28516C115.046 3.0026 115.087 2.76042 115.127 2.55859C115.208 2.47786 115.288 2.39714 115.369 2.31641C115.45 2.23568 115.531 2.13477 115.611 2.01367C116.055 1.93294 116.277 1.89258 116.277 1.89258C116.762 1.89258 117.186 1.91276 117.549 1.95312C117.952 1.95312 118.376 1.97331 118.82 2.01367C119.345 2.13477 119.708 2.19531 119.91 2.19531C120.112 2.15495 120.314 2.11458 120.516 2.07422C120.758 2.03385 121 2.03385 121.242 2.07422C121.525 2.11458 121.747 2.11458 121.908 2.07422C121.989 2.07422 122.13 2.0944 122.332 2.13477C122.574 2.13477 122.776 2.0944 122.938 2.01367C123.018 2.05404 123.119 2.07422 123.24 2.07422C123.361 2.03385 123.482 2.01367 123.604 2.01367C123.765 2.05404 124.027 2.07422 124.391 2.07422C124.673 2.11458 124.915 2.13477 125.117 2.13477C125.359 2.13477 125.561 2.17513 125.723 2.25586C126.086 2.21549 126.308 2.19531 126.389 2.19531C126.51 2.19531 126.611 2.21549 126.691 2.25586C127.216 2.25586 127.539 2.25586 127.66 2.25586C127.781 2.21549 127.902 2.19531 128.023 2.19531C128.185 2.19531 128.427 2.23568 128.75 2.31641C129.355 2.23568 129.739 2.21549 129.9 2.25586C130.102 2.25586 130.304 2.25586 130.506 2.25586C130.627 2.25586 130.748 2.25586 130.869 2.25586C130.99 2.21549 131.152 2.21549 131.354 2.25586C131.596 2.33659 131.737 2.35677 131.777 2.31641C131.858 2.27604 131.939 2.27604 132.02 2.31641C132.262 2.31641 132.544 2.33659 132.867 2.37695C133.19 2.37695 133.473 2.35677 133.715 2.31641C134.078 2.31641 134.401 2.29622 134.684 2.25586C134.966 2.21549 135.249 2.21549 135.531 2.25586C136.137 2.21549 136.561 2.23568 136.803 2.31641C137.045 2.35677 137.327 2.35677 137.65 2.31641L138.316 2.19531C138.397 2.15495 138.518 2.13477 138.68 2.13477C138.882 2.0944 139.083 2.05404 139.285 2.01367C139.81 2.05404 140.133 2.05404 140.254 2.01367C140.375 1.93294 140.557 1.91276 140.799 1.95312C141.404 1.91276 141.848 1.93294 142.131 2.01367C142.413 2.0944 142.716 2.0944 143.039 2.01367ZM159.447 2.19531C159.73 3.16406 159.77 4.17318 159.568 5.22266C159.568 5.54557 159.528 5.76758 159.447 5.88867C159.447 6.00977 159.467 6.13086 159.508 6.25195C159.548 6.37305 159.568 6.47396 159.568 6.55469C159.488 6.8776 159.447 7.05924 159.447 7.09961C159.488 7.13997 159.508 7.20052 159.508 7.28125C159.427 7.48307 159.387 7.66471 159.387 7.82617C159.427 7.94727 159.447 8.10872 159.447 8.31055C159.447 8.51237 159.427 8.69401 159.387 8.85547C159.346 9.01693 159.306 9.19857 159.266 9.40039C159.225 9.68294 159.205 9.96549 159.205 10.248C159.245 10.4902 159.205 10.7324 159.084 10.9746C159.124 11.3783 159.145 11.7214 159.145 12.0039C159.185 12.2461 159.185 12.4883 159.145 12.7305C159.104 13.013 159.084 13.235 159.084 13.3965C159.084 13.4772 159.064 13.5781 159.023 13.6992C158.983 13.8203 159.003 13.9414 159.084 14.0625C158.963 14.5065 158.902 14.8092 158.902 14.9707C158.902 15.0918 158.882 15.2734 158.842 15.5156C158.882 15.7174 158.902 16 158.902 16.3633C158.902 16.7266 158.882 17.0091 158.842 17.2109C158.801 17.3724 158.781 17.5339 158.781 17.6953C158.781 17.8568 158.781 18.0182 158.781 18.1797C158.701 18.7044 158.68 19.0475 158.721 19.209C158.761 19.3704 158.781 19.5319 158.781 19.6934C158.781 20.0566 158.761 20.2585 158.721 20.2988C158.721 20.2988 158.721 20.3392 158.721 20.4199C158.721 20.8236 158.701 21.0859 158.66 21.207C158.66 21.2878 158.66 21.3887 158.66 21.5098C158.66 21.6309 158.68 21.7721 158.721 21.9336C158.761 22.0547 158.781 22.196 158.781 22.3574C158.66 23.2051 158.66 23.8711 158.781 24.3555C158.701 24.8398 158.68 25.2031 158.721 25.4453C158.801 25.6471 158.842 25.8086 158.842 25.9297C158.842 26.1315 158.822 26.293 158.781 26.4141C158.781 26.5352 158.801 26.6966 158.842 26.8984C158.842 27.3424 158.862 27.6654 158.902 27.8672C158.943 28.069 158.963 28.2305 158.963 28.3516C158.963 28.513 158.943 28.6745 158.902 28.8359C158.902 28.957 158.943 29.0983 159.023 29.2598C158.902 29.4616 158.882 29.7643 158.963 30.168C158.963 30.2487 158.963 30.3698 158.963 30.5312C159.003 30.6523 159.044 30.7533 159.084 30.834C159.084 31.3184 159.084 31.5605 159.084 31.5605C159.084 31.8835 159.064 32.0651 159.023 32.1055C159.023 32.1055 159.023 32.1458 159.023 32.2266C158.983 32.5495 158.963 32.7311 158.963 32.7715C159.003 32.8118 159.023 32.8522 159.023 32.8926C158.943 33.3366 158.923 33.5788 158.963 33.6191C159.003 33.6191 159.023 33.6393 159.023 33.6797C158.983 34.2448 158.983 34.5879 159.023 34.709C159.145 35.2741 159.205 35.5566 159.205 35.5566C159.245 35.7181 159.245 35.8796 159.205 36.041C159.205 36.2025 159.245 36.3639 159.326 36.5254C159.488 36.8887 159.831 37.1309 160.355 37.252C160.719 37.3327 161.042 37.373 161.324 37.373C161.607 37.3327 161.889 37.3529 162.172 37.4336L163.08 37.6152C163.443 37.696 163.665 37.7565 163.746 37.7969C163.827 37.7969 163.908 37.7969 163.988 37.7969C164.23 37.7969 164.392 37.7969 164.473 37.7969C164.594 37.7565 164.695 37.7565 164.775 37.7969C165.098 37.7969 165.401 37.8372 165.684 37.918C165.966 37.9583 166.269 37.8978 166.592 37.7363C166.753 37.8171 166.895 37.8171 167.016 37.7363C167.177 37.6556 167.339 37.6152 167.5 37.6152C167.742 37.6152 167.924 37.6152 168.045 37.6152C168.206 37.5749 168.388 37.5345 168.59 37.4941C169.074 37.4134 169.316 37.373 169.316 37.373C169.639 37.252 169.882 37.2116 170.043 37.252C170.204 37.252 170.346 37.1914 170.467 37.0703C170.507 36.6263 170.527 36.1217 170.527 35.5566C170.568 34.9915 170.548 34.4466 170.467 33.9219C170.386 33.4375 170.346 32.9935 170.346 32.5898C170.305 32.2266 170.285 31.8835 170.285 31.5605C170.326 31.2376 170.326 30.8945 170.285 30.5312C170.285 30.2083 170.265 29.9863 170.225 29.8652C170.225 29.7038 170.225 29.5423 170.225 29.3809C170.225 29.2598 170.204 29.1387 170.164 29.0176C170.164 28.8965 170.184 28.7956 170.225 28.7148C170.225 28.2708 170.204 27.9076 170.164 27.625C170.124 27.3424 170.104 27.0801 170.104 26.8379C170.104 26.4746 170.083 26.1315 170.043 25.8086C170.043 25.4453 170.023 25.1022 169.982 24.7793C169.982 24.3353 169.962 23.9518 169.922 23.6289C169.841 23.5078 169.821 23.3464 169.861 23.1445C169.902 22.9427 169.922 22.7409 169.922 22.5391C169.841 22.0143 169.781 21.6107 169.74 21.3281C169.7 21.1263 169.66 20.8639 169.619 20.541C169.619 20.1777 169.639 19.8346 169.68 19.5117C169.559 19.3099 169.498 19.0879 169.498 18.8457C169.498 18.5632 169.478 18.2604 169.438 17.9375C169.397 17.3724 169.357 16.9688 169.316 16.7266C169.276 16.4844 169.256 16.2624 169.256 16.0605C169.296 15.8184 169.276 15.6367 169.195 15.5156C169.155 15.3542 169.135 15.2331 169.135 15.1523C169.094 14.8294 169.094 14.6276 169.135 14.5469C169.175 14.4258 169.175 14.3249 169.135 14.2441L168.893 13.0332C168.933 12.4277 168.933 12.0645 168.893 11.9434C168.893 11.7819 168.893 11.6003 168.893 11.3984C168.852 11.0352 168.852 10.7728 168.893 10.6113C168.973 10.4095 168.993 10.2077 168.953 10.0059C168.953 9.88477 168.933 9.78385 168.893 9.70312C168.852 9.58203 168.812 9.44076 168.771 9.2793C168.893 9.07747 168.913 8.87565 168.832 8.67383C168.792 8.47201 168.771 8.22982 168.771 7.94727C168.812 7.70508 168.792 7.54362 168.711 7.46289C168.671 7.38216 168.65 7.30143 168.65 7.2207C168.65 6.97852 168.671 6.77669 168.711 6.61523C168.751 6.45378 168.731 6.27214 168.65 6.07031L168.59 5.22266C168.63 5.10156 168.671 5.00065 168.711 4.91992C168.792 4.79883 168.832 4.67773 168.832 4.55664C168.832 4.39518 168.812 4.25391 168.771 4.13281C168.771 3.97135 168.792 3.8099 168.832 3.64844L169.195 2.86133C169.438 2.53841 169.619 2.37695 169.74 2.37695C169.861 2.33659 169.962 2.27604 170.043 2.19531C170.124 2.27604 170.225 2.29622 170.346 2.25586C170.467 2.17513 170.588 2.11458 170.709 2.07422C170.79 2.07422 170.891 2.0944 171.012 2.13477C171.133 2.13477 171.254 2.13477 171.375 2.13477C171.779 2.17513 172.001 2.19531 172.041 2.19531C172.122 2.19531 172.202 2.17513 172.283 2.13477C172.445 2.13477 172.586 2.15495 172.707 2.19531C172.868 2.19531 173.05 2.19531 173.252 2.19531C173.413 2.19531 173.575 2.19531 173.736 2.19531C173.938 2.15495 174.1 2.15495 174.221 2.19531C174.867 2.31641 175.371 2.37695 175.734 2.37695C176.138 2.37695 176.461 2.45768 176.703 2.61914C176.865 2.57878 176.986 2.53841 177.066 2.49805C177.188 2.45768 177.309 2.41732 177.43 2.37695C177.672 2.37695 177.833 2.39714 177.914 2.4375C178.035 2.47786 178.136 2.49805 178.217 2.49805C178.863 2.37695 179.286 2.31641 179.488 2.31641C179.73 2.27604 179.973 2.29622 180.215 2.37695C180.174 2.82096 180.154 3.22461 180.154 3.58789C180.195 3.91081 180.195 4.29427 180.154 4.73828C180.114 5.22266 180.094 5.48503 180.094 5.52539C180.134 5.52539 180.134 5.58594 180.094 5.70703C180.053 5.82812 180.033 5.98958 180.033 6.19141C180.033 6.35286 180.013 6.49414 179.973 6.61523C179.852 7.09961 179.791 7.44271 179.791 7.64453C179.791 7.84635 179.791 8.06836 179.791 8.31055C179.71 8.71419 179.67 9.01693 179.67 9.21875C179.67 9.42057 179.67 9.58203 179.67 9.70312C179.71 9.82422 179.73 9.96549 179.73 10.127C179.65 10.4902 179.609 10.6921 179.609 10.7324C179.65 10.7728 179.65 10.8535 179.609 10.9746C179.609 11.1361 179.589 11.2773 179.549 11.3984C179.508 11.5195 179.488 11.6406 179.488 11.7617C179.488 11.8424 179.488 11.9434 179.488 12.0645C179.529 12.1855 179.549 12.3066 179.549 12.4277C179.468 12.7507 179.428 13.013 179.428 13.2148C179.428 13.4167 179.408 13.5983 179.367 13.7598C179.367 13.8809 179.367 14.0221 179.367 14.1836C179.367 14.5872 179.367 14.9707 179.367 15.334C179.408 15.6973 179.408 16.0404 179.367 16.3633C179.367 16.5651 179.307 16.7871 179.186 17.0293C179.226 17.1908 179.226 17.3522 179.186 17.5137C179.186 17.6348 179.206 17.7559 179.246 17.877C179.327 18.6439 179.327 19.2292 179.246 19.6328C179.206 20.0365 179.226 20.4199 179.307 20.7832C179.307 21.3483 179.327 21.6914 179.367 21.8125C179.408 21.9336 179.428 22.0749 179.428 22.2363C179.428 22.64 179.428 22.8822 179.428 22.9629C179.468 23.0033 179.508 23.0638 179.549 23.1445C179.508 23.4271 179.488 23.6491 179.488 23.8105C179.529 23.9316 179.549 24.0326 179.549 24.1133C179.589 24.3555 179.589 24.5977 179.549 24.8398C179.549 25.2031 179.589 25.5462 179.67 25.8691C179.751 26.3535 179.791 26.9186 179.791 27.5645C179.791 28.1699 179.771 28.735 179.73 29.2598C179.69 29.4616 179.71 29.7643 179.791 30.168V31.0762C179.872 31.6009 179.912 31.944 179.912 32.1055C179.912 32.3073 179.892 32.5293 179.852 32.7715C179.811 32.9733 179.791 33.1549 179.791 33.3164C179.872 33.7604 179.892 34.1035 179.852 34.3457C179.852 34.5475 179.852 34.7897 179.852 35.0723C179.852 35.3548 179.872 35.6172 179.912 35.8594C179.952 36.0612 179.973 36.263 179.973 36.4648C179.932 36.707 179.952 36.9694 180.033 37.252V38.1602C180.074 38.362 180.094 38.584 180.094 38.8262C180.094 39.028 180.114 39.2702 180.154 39.5527C180.154 40.1986 180.215 40.6628 180.336 40.9453C180.457 41.2279 180.518 41.5508 180.518 41.9141C180.477 42.1562 180.437 42.4792 180.396 42.8828C180.396 43.2461 180.437 43.5892 180.518 43.9121C180.598 44.3965 180.639 44.7598 180.639 45.002C180.639 45.2038 180.639 45.4056 180.639 45.6074C180.679 45.7285 180.719 45.8496 180.76 45.9707C180.8 46.0918 180.82 46.2129 180.82 46.334C180.538 46.5762 180.356 46.7174 180.275 46.7578C180.195 46.7578 180.114 46.7982 180.033 46.8789C179.63 47 179.367 47.0807 179.246 47.1211C179.125 47.2018 178.984 47.2624 178.822 47.3027C178.499 47.3835 178.318 47.4238 178.277 47.4238C178.237 47.4642 178.176 47.5046 178.096 47.5449C177.652 47.6257 177.369 47.6458 177.248 47.6055C177.127 47.6055 177.006 47.6257 176.885 47.666C176.602 47.7467 176.34 47.8073 176.098 47.8477C175.855 47.9284 175.613 48.0091 175.371 48.0898C175.169 48.1302 174.967 48.1504 174.766 48.1504C174.604 48.1504 174.423 48.1706 174.221 48.2109C173.696 48.3724 173.312 48.4531 173.07 48.4531C172.626 48.3724 172.384 48.332 172.344 48.332C172.344 48.3724 172.324 48.3926 172.283 48.3926C172.041 48.3118 171.9 48.2109 171.859 48.0898C171.859 48.0091 171.839 47.9284 171.799 47.8477C171.597 47.444 171.476 47.222 171.436 47.1816C171.436 47.1816 171.436 47.1615 171.436 47.1211C171.274 47.0404 171.193 46.9395 171.193 46.8184C171.234 46.6973 171.214 46.5964 171.133 46.5156C170.931 46.0716 170.83 45.8294 170.83 45.7891C170.749 45.5065 170.709 45.2441 170.709 45.002C170.709 44.7598 170.689 44.5176 170.648 44.2754C170.164 44.3965 169.922 44.4974 169.922 44.5781C169.922 44.6185 169.882 44.6387 169.801 44.6387C169.478 44.8405 169.276 44.9818 169.195 45.0625C169.155 45.1029 169.094 45.1634 169.014 45.2441C168.893 45.3249 168.671 45.446 168.348 45.6074C168.025 45.8496 167.843 45.9707 167.803 45.9707C167.762 45.9303 167.702 45.9102 167.621 45.9102C167.298 46.112 167.117 46.2129 167.076 46.2129C167.036 46.2129 166.995 46.2331 166.955 46.2734C166.632 46.4349 166.39 46.5358 166.229 46.5762C166.067 46.5762 165.926 46.5964 165.805 46.6367C165.522 46.8385 165.361 46.9395 165.32 46.9395C165.28 46.9395 165.24 46.9596 165.199 47C164.917 47.1211 164.695 47.1816 164.533 47.1816C164.372 47.1816 164.251 47.2422 164.17 47.3633C163.686 47.4036 163.363 47.4238 163.201 47.4238C163.04 47.4642 162.919 47.5247 162.838 47.6055C162.757 47.5651 162.636 47.5651 162.475 47.6055C162.354 47.6458 162.212 47.6458 162.051 47.6055C161.688 47.6055 161.365 47.5449 161.082 47.4238C160.598 47.3027 160.315 47.222 160.234 47.1816C160.154 47.1816 160.073 47.1615 159.992 47.1211C159.79 47 159.609 46.9596 159.447 47C159.326 47 159.205 46.9798 159.084 46.9395C158.882 46.8991 158.68 46.8385 158.479 46.7578C158.317 46.6367 158.156 46.6165 157.994 46.6973C157.55 46.4954 157.268 46.3945 157.146 46.3945C157.025 46.3945 156.904 46.3743 156.783 46.334C156.178 46.0918 155.754 45.9707 155.512 45.9707C155.31 45.9707 155.068 45.9303 154.785 45.8496C154.341 45.6882 154.099 45.6074 154.059 45.6074C154.059 45.5671 154.038 45.5469 153.998 45.5469C153.756 45.3854 153.534 45.2845 153.332 45.2441C153.171 45.2038 153.009 45.1634 152.848 45.123C152.404 45.002 152.161 44.9212 152.121 44.8809C152.121 44.8405 152.081 44.8001 152 44.7598C151.677 44.5983 151.475 44.4974 151.395 44.457C150.91 44.1745 150.607 44.013 150.486 43.9727C150.406 43.8919 150.325 43.8112 150.244 43.7305C149.962 43.6094 149.74 43.5085 149.578 43.4277C149.174 42.9837 148.892 42.681 148.73 42.5195C148.569 42.3177 148.448 42.1159 148.367 41.9141C148.367 41.5911 148.367 41.3893 148.367 41.3086C148.408 41.1875 148.408 41.0664 148.367 40.9453C148.367 40.4206 148.327 40.0371 148.246 39.7949L148.307 38.8262C148.266 38.0996 148.286 37.373 148.367 36.6465C148.367 36.5254 148.367 36.4043 148.367 36.2832C148.367 36.1621 148.367 36.0612 148.367 35.9805C148.367 35.5768 148.387 35.3145 148.428 35.1934C148.468 35.0319 148.488 34.8503 148.488 34.6484C148.488 34.1641 148.529 33.7604 148.609 33.4375C148.65 33.3164 148.65 33.1146 148.609 32.832C148.609 32.5091 148.63 32.2669 148.67 32.1055C148.71 31.5807 148.751 31.2578 148.791 31.1367C148.831 31.0156 148.852 30.8945 148.852 30.7734C148.852 30.3294 148.831 30.0671 148.791 29.9863C148.791 29.8652 148.831 29.7643 148.912 29.6836C148.831 29.6029 148.791 29.4616 148.791 29.2598C148.831 29.0176 148.811 28.8158 148.73 28.6543C148.811 28.2103 148.831 27.9076 148.791 27.7461C148.791 27.5443 148.771 27.403 148.73 27.3223C148.69 27.0397 148.67 26.8581 148.67 26.7773C148.71 26.6562 148.73 26.5352 148.73 26.4141L148.67 25.082C148.549 24.4362 148.488 23.9922 148.488 23.75C148.529 23.4674 148.529 23.1849 148.488 22.9023C148.488 22.7005 148.468 22.5189 148.428 22.3574C148.428 22.1556 148.428 21.9538 148.428 21.752V20.9648C148.387 20.8034 148.367 20.6621 148.367 20.541C148.367 20.4199 148.327 20.2988 148.246 20.1777L148.307 18.9668C148.347 18.6842 148.367 18.4421 148.367 18.2402C148.408 18.0384 148.428 17.8366 148.428 17.6348C148.428 17.5137 148.387 17.3724 148.307 17.2109C148.266 17.0091 148.246 16.8275 148.246 16.666C148.246 16.5449 148.246 16.3633 148.246 16.1211C148.286 15.8385 148.286 15.5964 148.246 15.3945C148.246 15.2331 148.226 15.0918 148.186 14.9707C148.145 14.8496 148.125 14.6882 148.125 14.4863C148.044 14.2845 148.024 14.0625 148.064 13.8203C148.145 13.5781 148.186 13.3359 148.186 13.0938C148.064 12.7708 148.024 12.5892 148.064 12.5488C148.105 12.5085 148.125 12.4681 148.125 12.4277C148.125 11.9434 148.105 11.5801 148.064 11.3379C148.064 11.0553 148.004 10.8132 147.883 10.6113C147.883 10.1673 147.863 9.94531 147.822 9.94531C147.822 9.94531 147.822 9.92513 147.822 9.88477C147.822 9.40039 147.802 9.09766 147.762 8.97656C147.762 8.8151 147.742 8.67383 147.701 8.55273C147.661 8.31055 147.641 8.08854 147.641 7.88672C147.641 7.64453 147.641 7.42253 147.641 7.2207L147.58 6.37305C147.54 6.17122 147.52 6.00977 147.52 5.88867C147.52 5.72721 147.479 5.58594 147.398 5.46484C147.318 4.98047 147.318 4.51628 147.398 4.07227C147.479 3.62826 147.439 3.24479 147.277 2.92188C147.398 2.59896 147.479 2.39714 147.52 2.31641C147.6 2.23568 147.681 2.15495 147.762 2.07422C148.004 1.83203 148.165 1.65039 148.246 1.5293C148.569 1.5293 148.831 1.50911 149.033 1.46875C149.235 1.38802 149.437 1.42839 149.639 1.58984C150.123 1.58984 150.385 1.58984 150.426 1.58984C150.466 1.54948 150.507 1.5293 150.547 1.5293C150.991 1.56966 151.253 1.58984 151.334 1.58984C151.415 1.58984 151.495 1.63021 151.576 1.71094C151.818 1.67057 152.02 1.69076 152.182 1.77148C152.383 1.81185 152.626 1.83203 152.908 1.83203C153.393 1.79167 153.776 1.79167 154.059 1.83203C154.382 1.8724 154.664 1.8724 154.906 1.83203C155.471 1.91276 155.835 1.95312 155.996 1.95312C156.158 1.91276 156.319 1.8724 156.48 1.83203C156.602 1.83203 156.723 1.85221 156.844 1.89258C157.005 1.93294 157.146 1.91276 157.268 1.83203C157.792 1.8724 158.156 1.91276 158.357 1.95312C158.6 1.99349 158.822 1.99349 159.023 1.95312L159.447 2.19531ZM198.863 0.742188C198.944 0.621094 199.045 0.600911 199.166 0.681641C199.327 0.76237 199.449 0.76237 199.529 0.681641C199.812 0.883464 200.054 1.00456 200.256 1.04492C200.377 1.20638 200.579 1.32747 200.861 1.4082C201.184 1.69076 201.366 1.85221 201.406 1.89258C201.81 2.33659 202.113 2.61914 202.314 2.74023C202.557 2.86133 202.779 2.98242 202.98 3.10352C203.424 3.26497 203.667 3.38607 203.707 3.4668C203.747 3.54753 203.828 3.62826 203.949 3.70898L204.555 4.25391C204.797 4.41536 204.979 4.55664 205.1 4.67773C205.261 4.7181 205.423 4.77865 205.584 4.85938C205.786 4.89974 205.927 4.96029 206.008 5.04102C206.129 5.48503 206.169 5.76758 206.129 5.88867C206.129 6.00977 206.129 6.13086 206.129 6.25195C206.008 6.41341 205.927 6.55469 205.887 6.67578C205.887 6.75651 205.846 6.83724 205.766 6.91797C205.564 7.24089 205.423 7.44271 205.342 7.52344C205.059 7.76562 204.857 7.92708 204.736 8.00781C204.656 8.04818 204.575 8.10872 204.494 8.18945C204.131 8.55273 203.909 8.75456 203.828 8.79492C203.788 8.79492 203.747 8.8151 203.707 8.85547C203.505 9.01693 203.364 9.19857 203.283 9.40039C203.122 9.40039 203.001 9.46094 202.92 9.58203C202.88 9.66276 202.799 9.72331 202.678 9.76367C202.355 10.0059 202.173 10.1471 202.133 10.1875C202.133 10.1875 202.092 10.2279 202.012 10.3086C201.77 10.5104 201.588 10.6719 201.467 10.793C201.386 10.8737 201.305 10.9544 201.225 11.0352C200.902 11.3984 200.72 11.6204 200.68 11.7012C200.639 11.7415 200.579 11.8021 200.498 11.8828C200.256 12.2461 200.115 12.4479 200.074 12.4883C200.034 12.4883 199.993 12.5286 199.953 12.6094C199.711 12.9323 199.529 13.1543 199.408 13.2754C199.287 13.3965 199.186 13.5378 199.105 13.6992C198.904 14.0625 198.783 14.2845 198.742 14.3652C198.702 14.4056 198.702 14.4661 198.742 14.5469C198.621 14.8294 198.5 15.0111 198.379 15.0918C198.298 15.1725 198.238 15.2734 198.197 15.3945C198.238 15.6367 198.217 15.8587 198.137 16.0605C198.056 16.2624 198.016 16.4642 198.016 16.666C198.016 17.11 198.056 17.3724 198.137 17.4531C198.217 17.9375 198.318 18.3008 198.439 18.543C198.561 18.7448 198.661 18.9668 198.742 19.209C198.823 19.3704 198.883 19.5521 198.924 19.7539C199.005 19.9154 199.085 20.0768 199.166 20.2383C199.327 20.6419 199.449 20.9043 199.529 21.0254C199.61 21.1061 199.691 21.207 199.771 21.3281C200.054 21.651 200.215 21.8327 200.256 21.873C200.337 21.873 200.397 21.9134 200.438 21.9941C200.518 22.2363 200.579 22.3978 200.619 22.4785C200.7 22.5189 200.76 22.5794 200.801 22.6602C200.962 22.9023 201.083 23.1243 201.164 23.3262C201.285 23.4876 201.406 23.6491 201.527 23.8105C201.689 24.1335 201.77 24.3353 201.77 24.416C201.81 24.4564 201.87 24.5169 201.951 24.5977C202.153 24.9609 202.274 25.1628 202.314 25.2031C202.597 25.6471 202.738 25.8691 202.738 25.8691C202.779 25.8288 202.799 25.849 202.799 25.9297C202.92 26.4141 203.001 26.7773 203.041 27.0195C203.122 27.2617 203.202 27.5039 203.283 27.7461C203.364 27.9479 203.424 28.1094 203.465 28.2305C203.546 28.3112 203.626 28.3919 203.707 28.4727L203.949 29.2598C204.151 29.6634 204.272 29.8854 204.312 29.9258C204.353 29.9661 204.373 30.0065 204.373 30.0469C204.454 30.4102 204.494 30.6725 204.494 30.834C204.494 30.9954 204.535 31.1569 204.615 31.3184C204.656 31.4798 204.696 31.6413 204.736 31.8027C204.777 31.9238 204.797 32.0853 204.797 32.2871C204.797 32.6504 204.817 32.8724 204.857 32.9531C204.898 33.0339 204.918 33.1146 204.918 33.1953C204.918 33.3164 204.898 33.498 204.857 33.7402C204.817 33.9421 204.797 34.1237 204.797 34.2852C204.837 34.5273 204.837 34.6888 204.797 34.7695C204.797 34.8099 204.797 34.8704 204.797 34.9512C204.716 35.4355 204.635 35.7383 204.555 35.8594C204.514 35.9805 204.494 36.1016 204.494 36.2227C204.252 36.707 204.111 37.0098 204.07 37.1309C204.07 37.2116 204.03 37.2923 203.949 37.373C203.828 37.6556 203.747 37.8372 203.707 37.918C203.707 37.9987 203.667 38.0794 203.586 38.1602C203.505 38.362 203.344 38.584 203.102 38.8262C202.9 39.2298 202.698 39.472 202.496 39.5527C202.496 39.7142 202.456 39.8555 202.375 39.9766C202.294 40.0573 202.214 40.1582 202.133 40.2793C201.971 40.4408 201.891 40.5618 201.891 40.6426C201.891 40.7233 201.87 40.804 201.83 40.8848C201.467 41.248 201.245 41.4902 201.164 41.6113C201.124 41.6921 201.023 41.7728 200.861 41.8535C200.66 42.0553 200.458 42.2975 200.256 42.5801C200.054 42.8223 199.893 43.1048 199.771 43.4277C199.489 43.5892 199.307 43.7507 199.227 43.9121C199.025 44.235 198.904 44.4167 198.863 44.457C198.823 44.457 198.783 44.4974 198.742 44.5781C198.621 44.7799 198.52 44.9414 198.439 45.0625C198.399 45.1432 198.359 45.224 198.318 45.3047C197.915 45.5469 197.713 45.6882 197.713 45.7285C197.511 45.9303 197.37 46.0514 197.289 46.0918C197.249 46.1322 197.188 46.1725 197.107 46.2129C196.825 46.4551 196.684 46.5964 196.684 46.6367C196.684 46.6771 196.663 46.7174 196.623 46.7578C196.381 47.1615 196.199 47.4036 196.078 47.4844C195.997 47.6055 195.896 47.7266 195.775 47.8477C195.533 47.9688 195.392 48.1504 195.352 48.3926C194.988 48.6751 194.766 48.8366 194.686 48.877C194.645 48.9173 194.524 48.9779 194.322 49.0586C193.878 49.1393 193.616 49.1393 193.535 49.0586C193.495 48.9779 193.374 48.9577 193.172 48.998C192.809 48.7155 192.607 48.5742 192.566 48.5742C192.566 48.6146 192.546 48.6146 192.506 48.5742C192.425 48.4935 192.344 48.3926 192.264 48.2715C192.223 48.1504 192.163 48.0495 192.082 47.9688C191.719 47.6458 191.517 47.4642 191.477 47.4238C191.477 47.3835 191.436 47.3835 191.355 47.4238C190.911 47.0605 190.568 46.7174 190.326 46.3945C190.044 46.1927 189.862 46.0918 189.781 46.0918C189.701 46.0514 189.6 46.0111 189.479 45.9707C189.236 45.4863 189.075 45.1634 188.994 45.002C188.59 44.6387 188.368 44.4368 188.328 44.3965C188.328 44.3158 188.288 44.2552 188.207 44.2148L187.359 43.3672C187.077 42.8424 186.855 42.4993 186.693 42.3379C186.693 42.0957 186.633 41.9342 186.512 41.8535C186.391 41.7324 186.31 41.571 186.27 41.3691C186.27 41.248 186.29 41.127 186.33 41.0059C186.411 40.8444 186.492 40.7031 186.572 40.582C186.734 40.2188 186.875 39.9766 186.996 39.8555C187.158 39.694 187.299 39.5729 187.42 39.4922C187.702 39.2904 187.904 39.0885 188.025 38.8867C188.51 38.362 188.833 38.0391 188.994 37.918C189.075 37.7969 189.135 37.6758 189.176 37.5547C189.257 37.3932 189.378 37.2721 189.539 37.1914C189.902 36.7878 190.185 36.485 190.387 36.2832C190.589 36.0814 190.79 35.8796 190.992 35.6777C191.194 35.4355 191.396 35.1732 191.598 34.8906C191.921 34.487 192.102 34.265 192.143 34.2246C192.223 34.1439 192.284 34.0632 192.324 33.9824C192.647 33.5384 192.809 33.276 192.809 33.1953C192.849 33.0742 192.889 32.9733 192.93 32.8926C193.253 32.4082 193.454 32.0247 193.535 31.7422C193.656 31.4596 193.656 31.1367 193.535 30.7734L193.475 30.1074C193.273 29.7441 193.152 29.502 193.111 29.3809C193.071 29.2194 193.01 29.0781 192.93 28.957C192.647 28.5938 192.445 28.3919 192.324 28.3516C192.284 28.1497 192.203 28.0085 192.082 27.9277C191.961 27.8066 191.86 27.6452 191.779 27.4434C191.658 27.3223 191.577 27.2012 191.537 27.0801C191.537 26.959 191.497 26.8581 191.416 26.7773C191.174 26.4544 191.012 26.2122 190.932 26.0508C190.851 25.8893 190.77 25.7279 190.689 25.5664C190.528 25.2839 190.427 25.1426 190.387 25.1426C190.346 25.1022 190.306 25.0417 190.266 24.9609L189.721 24.3555C189.64 24.1536 189.539 23.972 189.418 23.8105C189.337 23.6087 189.236 23.4069 189.115 23.2051C189.035 23.0436 188.934 22.8822 188.812 22.7207C188.732 22.5592 188.651 22.3776 188.57 22.1758C188.409 21.8932 188.328 21.7318 188.328 21.6914C188.328 21.651 188.308 21.6107 188.268 21.5703C187.985 21.1667 187.844 20.9447 187.844 20.9043L187.42 20.1777C187.258 19.8145 187.158 19.6328 187.117 19.6328C187.117 19.5924 187.117 19.5521 187.117 19.5117C186.956 19.3099 186.855 19.1888 186.814 19.1484C186.774 19.0677 186.734 18.987 186.693 18.9062C186.572 18.5026 186.512 18.2604 186.512 18.1797C186.391 17.6953 186.29 17.3926 186.209 17.2715C186.169 17.1504 186.148 17.0091 186.148 16.8477C186.229 16.444 186.31 16.0807 186.391 15.7578C186.471 15.3945 186.532 15.1927 186.572 15.1523C186.613 15.0716 186.653 14.9909 186.693 14.9102C186.774 14.4661 186.794 14.1029 186.754 13.8203C186.754 13.4974 186.794 13.235 186.875 13.0332C187.077 12.6699 187.238 12.3268 187.359 12.0039C187.561 11.5599 187.682 11.2773 187.723 11.1562C187.763 10.9948 187.803 10.8737 187.844 10.793C187.924 10.5104 188.066 10.248 188.268 10.0059C188.51 9.68294 188.651 9.5013 188.691 9.46094C188.732 9.38021 188.772 9.29948 188.812 9.21875C189.216 8.85547 189.479 8.57292 189.6 8.37109C189.801 8.08854 189.963 7.88672 190.084 7.76562C190.245 7.64453 190.387 7.48307 190.508 7.28125C190.589 7.11979 190.649 6.9987 190.689 6.91797C190.77 6.83724 190.851 6.75651 190.932 6.67578C191.214 6.47396 191.376 6.33268 191.416 6.25195C191.456 6.13086 191.517 6.02995 191.598 5.94922C191.719 5.82812 191.84 5.72721 191.961 5.64648C192.122 5.52539 192.243 5.4043 192.324 5.2832C192.405 5.20247 192.465 5.12174 192.506 5.04102C192.587 4.96029 192.667 4.85938 192.748 4.73828C193.273 4.45573 193.596 4.25391 193.717 4.13281C193.838 4.01172 193.979 3.91081 194.141 3.83008C194.544 3.54753 194.867 3.28516 195.109 3.04297C195.392 2.80078 195.533 2.67969 195.533 2.67969C195.574 2.67969 195.614 2.63932 195.654 2.55859C195.816 2.4375 195.977 2.31641 196.139 2.19531C196.3 2.03385 196.482 1.8724 196.684 1.71094C196.926 1.34766 197.067 1.16602 197.107 1.16602C197.148 1.16602 197.168 1.14583 197.168 1.10547C197.612 0.742188 197.975 0.540365 198.258 0.5C198.581 0.459635 198.783 0.540365 198.863 0.742188Z" fill="#F6F9FB"/>
</svg>
