<svg width="35" height="47" viewBox="0 0 35 47" fill="none" xmlns="http://www.w3.org/2000/svg">
<path d="M25.3359 24.6875C25.4167 24.8086 25.4772 24.9297 25.5176 25.0508C25.5579 25.1719 25.6185 25.2728 25.6992 25.3535C25.901 25.5957 26.0423 25.7572 26.123 25.8379C26.2038 25.9186 26.2845 25.9792 26.3652 26.0195C26.5267 26.1406 26.6478 26.2415 26.7285 26.3223C26.8092 26.3626 26.8698 26.4232 26.9102 26.5039C27.0312 26.5443 27.1322 26.625 27.2129 26.7461C27.2936 26.8268 27.4147 26.8672 27.5762 26.8672C27.8184 27.3112 28.0404 27.5534 28.2422 27.5938L28.7871 28.0176C28.8678 28.0983 28.9486 28.1992 29.0293 28.3203C29.1504 28.401 29.2715 28.4818 29.3926 28.5625C29.8366 28.9661 30.0788 29.2285 30.1191 29.3496C30.4017 29.7129 30.6035 29.9349 30.7246 30.0156C30.8457 30.0964 30.9466 30.1771 31.0273 30.2578C31.3503 30.5807 31.5924 30.8633 31.7539 31.1055C32.1172 31.4284 32.319 31.6706 32.3594 31.832C32.3997 31.9935 32.4603 32.1146 32.541 32.1953C32.6621 32.5586 32.7227 32.8008 32.7227 32.9219C32.9648 33.3255 33.1061 33.6484 33.1465 33.8906C33.2272 34.0924 33.3079 34.3145 33.3887 34.5566C33.3483 35.0007 33.3079 35.2832 33.2676 35.4043C33.2676 35.5254 33.2474 35.6465 33.207 35.7676C33.0052 36.252 32.9043 36.5547 32.9043 36.6758C32.9447 36.7969 32.9245 36.9382 32.8438 37.0996C32.8034 37.2611 32.7227 37.4023 32.6016 37.5234C32.5208 37.6445 32.4805 37.806 32.4805 38.0078C32.3594 38.0885 32.2585 38.1895 32.1777 38.3105C32.097 38.4316 32.0163 38.5527 31.9355 38.6738C31.653 38.9564 31.4915 39.1178 31.4512 39.1582C31.4108 39.1582 31.3503 39.1986 31.2695 39.2793L30.7852 40.0059C30.5026 40.3288 30.3411 40.5104 30.3008 40.5508C30.2604 40.5508 30.2201 40.5911 30.1797 40.6719C29.9779 40.8737 29.7962 41.0957 29.6348 41.3379C29.11 41.6608 28.7064 42.0039 28.4238 42.3672C27.9798 42.6497 27.7174 42.8314 27.6367 42.9121C27.5964 42.9525 27.5358 43.013 27.4551 43.0938C27.1725 43.2148 26.9707 43.3158 26.8496 43.3965C26.7689 43.4772 26.6882 43.5579 26.6074 43.6387C26.1634 43.9212 25.8607 44.1029 25.6992 44.1836L25.1543 44.6074C24.8717 44.8496 24.7103 44.9707 24.6699 44.9707C24.6296 44.9707 24.5892 44.9909 24.5488 45.0312L24.0039 45.4551C23.681 45.5358 23.4993 45.5964 23.459 45.6367C23.4186 45.6771 23.3581 45.6973 23.2773 45.6973C22.9544 45.8991 22.571 46.0404 22.127 46.1211C21.7233 46.2018 21.3197 46.3229 20.916 46.4844C20.5527 46.444 20.3105 46.4238 20.1895 46.4238C20.1087 46.4238 20.028 46.444 19.9473 46.4844C19.5436 46.5247 19.2005 46.5651 18.918 46.6055C18.6758 46.6458 18.4134 46.666 18.1309 46.666L17.041 46.6055C16.597 46.5247 16.3346 46.4642 16.2539 46.4238C16.1732 46.3835 16.0924 46.3431 16.0117 46.3027C15.6484 46.222 15.4264 46.1816 15.3457 46.1816C15.265 46.222 15.1842 46.2422 15.1035 46.2422C14.9017 46.2422 14.7201 46.222 14.5586 46.1816C14.4375 46.1816 14.276 46.1816 14.0742 46.1816C13.9531 46.1816 13.8118 46.1816 13.6504 46.1816C13.5293 46.222 13.388 46.222 13.2266 46.1816C13.1458 46.1816 13.0247 46.1816 12.8633 46.1816C12.7422 46.222 12.6413 46.2422 12.5605 46.2422C12.2376 46.2422 11.9954 46.2624 11.834 46.3027C11.7129 46.3431 11.5312 46.3633 11.2891 46.3633C10.9661 46.3229 10.7441 46.3229 10.623 46.3633C10.5423 46.4036 10.4616 46.444 10.3809 46.4844C9.97721 46.5651 9.61393 46.5853 9.29102 46.5449C8.9681 46.5449 8.70573 46.6055 8.50391 46.7266C8.34245 46.6458 8.18099 46.6055 8.01953 46.6055C7.89844 46.6458 7.75716 46.6862 7.5957 46.7266C7.0306 46.6862 6.62695 46.6862 6.38477 46.7266C6.14258 46.7669 5.88021 46.7669 5.59766 46.7266C5.27474 46.6458 5.0931 46.6055 5.05273 46.6055C5.01237 46.6458 4.95182 46.666 4.87109 46.666C4.79036 46.666 4.66927 46.6458 4.50781 46.6055C4.34635 46.6055 4.22526 46.6257 4.14453 46.666C3.4987 46.5046 3.07487 46.444 2.87305 46.4844C2.67122 46.5247 2.4694 46.5247 2.26758 46.4844C2.06576 46.4036 1.86393 46.3027 1.66211 46.1816C1.37956 45.9395 1.19792 45.778 1.11719 45.6973C1.07682 45.6165 1.05664 45.5358 1.05664 45.4551C1.05664 45.1322 1.03646 44.9102 0.996094 44.7891C0.996094 44.668 0.996094 44.5469 0.996094 44.4258C1.03646 44.224 1.03646 44.0827 0.996094 44.002C0.996094 43.8809 0.996094 43.7598 0.996094 43.6387L0.935547 42.6699V41.9434C1.01628 41.6608 1.03646 41.4993 0.996094 41.459C0.996094 41.3783 1.01628 41.2975 1.05664 41.2168C1.09701 41.015 1.11719 40.8333 1.11719 40.6719C1.15755 40.5104 1.19792 40.2884 1.23828 40.0059C1.35938 39.5618 1.39974 39.2995 1.35938 39.2188C1.35938 39.0977 1.35938 38.9967 1.35938 38.916C1.39974 38.7142 1.4401 38.5527 1.48047 38.4316C1.52083 38.2702 1.54102 38.1087 1.54102 37.9473V37.2207C1.58138 36.9382 1.58138 36.7767 1.54102 36.7363C1.54102 36.696 1.54102 36.6354 1.54102 36.5547C1.58138 36.3529 1.60156 36.151 1.60156 35.9492C1.64193 35.707 1.66211 35.4447 1.66211 35.1621C1.70247 34.6374 1.70247 34.3346 1.66211 34.2539C1.66211 34.1732 1.66211 34.0924 1.66211 34.0117C1.70247 33.5273 1.70247 33.2044 1.66211 33.043C1.66211 32.8815 1.66211 32.6999 1.66211 32.498C1.70247 32.4173 1.70247 32.3164 1.66211 32.1953C1.62174 32.0339 1.60156 31.8724 1.60156 31.7109C1.60156 31.5495 1.60156 31.4082 1.60156 31.2871C1.64193 31.1257 1.66211 30.944 1.66211 30.7422C1.66211 30.2174 1.64193 29.834 1.60156 29.5918C1.60156 29.3496 1.58138 29.1074 1.54102 28.8652C1.54102 28.7038 1.52083 28.5625 1.48047 28.4414C1.48047 28.2799 1.48047 28.1185 1.48047 27.957V26.1406C1.4401 25.737 1.41992 25.515 1.41992 25.4746L1.29883 23.3555C1.25846 23.2344 1.2181 23.1133 1.17773 22.9922C1.13737 22.8711 1.11719 22.75 1.11719 22.6289L1.17773 21.9023L1.23828 21.1152C1.19792 20.6712 1.13737 20.3281 1.05664 20.0859C1.09701 19.5208 1.07682 19.1576 0.996094 18.9961C0.955729 18.7943 0.975911 18.6126 1.05664 18.4512C1.05664 18.1686 1.03646 17.987 0.996094 17.9062C0.996094 17.7852 0.996094 17.6842 0.996094 17.6035C0.834635 16.877 0.733724 16.332 0.693359 15.9688C0.652995 15.6862 0.652995 15.3835 0.693359 15.0605C0.733724 14.7376 0.733724 14.4147 0.693359 14.0918C0.693359 13.9707 0.673177 13.8496 0.632812 13.7285C0.632812 13.6074 0.632812 13.5065 0.632812 13.4258C0.592448 13.1836 0.592448 12.9212 0.632812 12.6387C0.673177 12.3561 0.693359 12.1139 0.693359 11.9121C0.693359 11.5488 0.673177 11.347 0.632812 11.3066C0.592448 11.2663 0.572266 11.2259 0.572266 11.1855C0.572266 11.0241 0.592448 10.8828 0.632812 10.7617C0.673177 10.6406 0.693359 10.5195 0.693359 10.3984L0.632812 9.12695C0.592448 9.00586 0.552083 8.90495 0.511719 8.82422C0.471354 8.70312 0.451172 8.56185 0.451172 8.40039V7.43164C0.451172 7.06836 0.43099 6.70508 0.390625 6.3418C0.35026 5.93815 0.370443 5.59505 0.451172 5.3125C0.370443 5.19141 0.330078 4.98958 0.330078 4.70703C0.370443 4.38411 0.330078 4.16211 0.208984 4.04102C0.249349 3.55664 0.249349 3.29427 0.208984 3.25391C0.16862 3.21354 0.148438 3.15299 0.148438 3.07227C0.148438 2.70898 0.188802 2.50716 0.269531 2.4668C0.35026 2.38607 0.35026 2.28516 0.269531 2.16406C0.511719 1.72005 0.693359 1.49805 0.814453 1.49805C0.975911 1.45768 1.09701 1.39714 1.17773 1.31641C1.37956 1.31641 1.52083 1.33659 1.60156 1.37695C1.68229 1.37695 1.76302 1.31641 1.84375 1.19531H2.57031C2.89323 1.27604 3.07487 1.31641 3.11523 1.31641C3.1556 1.27604 3.21615 1.25586 3.29688 1.25586C3.78125 1.29622 4.14453 1.29622 4.38672 1.25586C4.66927 1.21549 4.93164 1.23568 5.17383 1.31641C5.29492 1.23568 5.4362 1.21549 5.59766 1.25586C5.79948 1.29622 5.90039 1.27604 5.90039 1.19531C6.3444 1.23568 6.62695 1.27604 6.74805 1.31641C6.86914 1.31641 6.97005 1.29622 7.05078 1.25586C7.65625 1.17513 7.99935 1.15495 8.08008 1.19531C8.40299 1.23568 8.58464 1.25586 8.625 1.25586C8.70573 1.21549 8.78646 1.19531 8.86719 1.19531C9.35156 1.19531 9.59375 1.15495 9.59375 1.07422C10.1992 1.27604 10.6432 1.35677 10.9258 1.31641C11.2487 1.23568 11.5111 1.19531 11.7129 1.19531H13.166C13.4889 1.15495 13.7715 1.13477 14.0137 1.13477C14.2559 1.0944 14.5182 1.03385 14.8008 0.953125C15.2044 1.07422 15.4466 1.11458 15.5273 1.07422C15.6484 1.03385 15.7695 0.99349 15.8906 0.953125H17.041C17.6868 0.953125 18.151 0.953125 18.4336 0.953125C18.7565 0.953125 19.0794 0.953125 19.4023 0.953125C19.6445 0.91276 19.8464 0.892578 20.0078 0.892578C20.2096 0.852214 20.3913 0.791667 20.5527 0.710938L21.2793 0.892578C21.6426 0.892578 21.8444 0.892578 21.8848 0.892578C21.9251 0.852214 21.9857 0.852214 22.0664 0.892578C22.3893 1.01367 22.571 1.07422 22.6113 1.07422C22.6517 1.07422 22.7122 1.0944 22.793 1.13477C22.9141 1.17513 23.0352 1.21549 23.1562 1.25586C23.2773 1.29622 23.4186 1.31641 23.5801 1.31641C24.0241 1.51823 24.3672 1.65951 24.6094 1.74023C24.8112 2.06315 24.9525 2.26497 25.0332 2.3457C25.1543 2.42643 25.2552 2.52734 25.3359 2.64844C25.5781 2.93099 25.6992 3.09245 25.6992 3.13281C25.7396 3.17318 25.7799 3.21354 25.8203 3.25391C26.0625 3.53646 26.1836 3.69792 26.1836 3.73828C26.1836 3.73828 26.2038 3.75846 26.2441 3.79883C26.4056 3.96029 26.5267 4.10156 26.6074 4.22266C26.6882 4.34375 26.7891 4.44466 26.9102 4.52539C27.1523 4.80794 27.334 5.05013 27.4551 5.25195C27.6165 5.41341 27.778 5.59505 27.9395 5.79688C28.2624 6.24089 28.4844 6.52344 28.6055 6.64453C28.7266 6.76562 28.8275 6.9069 28.9082 7.06836C29.0697 7.18945 29.1908 7.29036 29.2715 7.37109C29.3522 7.45182 29.4329 7.53255 29.5137 7.61328C29.9173 8.13802 30.1595 8.5013 30.2402 8.70312C30.5228 8.98568 30.7044 9.16732 30.7852 9.24805C30.8659 9.32878 30.9466 9.40951 31.0273 9.49023C31.2695 9.93424 31.4714 10.237 31.6328 10.3984C31.9557 10.7617 32.1172 10.9635 32.1172 11.0039C32.1576 11.0443 32.2181 11.125 32.2988 11.2461C32.5814 11.569 32.7428 11.7708 32.7832 11.8516C33.0658 12.2552 33.207 12.4772 33.207 12.5176C33.2474 12.5579 33.2878 12.5983 33.3281 12.6387C33.6107 13.002 33.752 13.2643 33.752 13.4258C33.752 13.5469 33.7923 13.7083 33.873 13.9102C33.9941 14.2331 34.0749 14.4147 34.1152 14.4551C34.1556 14.4954 34.1758 14.556 34.1758 14.6367C34.2161 15.0807 34.196 15.444 34.1152 15.7266C34.0345 16.0898 33.9538 16.3118 33.873 16.3926C33.8327 16.4733 33.7923 16.554 33.752 16.6348C33.6712 16.7559 33.6309 16.8971 33.6309 17.0586C33.6712 17.1797 33.651 17.321 33.5703 17.4824C33.207 17.8053 32.9648 18.0273 32.8438 18.1484C32.763 18.2292 32.6823 18.3099 32.6016 18.3906C32.3594 18.6732 32.2181 18.8952 32.1777 19.0566C31.9759 19.1374 31.8346 19.2585 31.7539 19.4199C31.7135 19.541 31.5924 19.6419 31.3906 19.7227C31.3099 19.9245 31.209 20.0658 31.0879 20.1465C30.9668 20.1868 30.8659 20.3079 30.7852 20.5098C30.2604 20.7923 29.8366 21.0547 29.5137 21.2969C29.4329 21.3776 29.3522 21.4583 29.2715 21.5391C29.1908 21.6198 29.0898 21.6803 28.9688 21.7207C28.7669 21.9225 28.6257 22.0638 28.5449 22.1445C28.5046 22.1849 28.444 22.2454 28.3633 22.3262C28.0404 22.4876 27.7174 22.6895 27.3945 22.9316C26.9909 23.2142 26.7487 23.3757 26.668 23.416C26.6276 23.416 26.5671 23.4564 26.4863 23.5371C26.123 23.9004 25.9212 24.1022 25.8809 24.1426C25.5983 24.4251 25.457 24.5866 25.457 24.627C25.457 24.627 25.4167 24.6471 25.3359 24.6875ZM22.127 14.1523C21.8444 13.7487 21.7031 13.5267 21.7031 13.4863C21.7031 13.446 21.6829 13.3854 21.6426 13.3047C21.4004 13.0625 21.2591 12.901 21.2188 12.8203C21.2188 12.7396 21.1784 12.6589 21.0977 12.5781C20.8555 12.2552 20.7142 12.0736 20.6738 12.0332C20.472 11.7507 20.3105 11.5488 20.1895 11.4277C20.1087 11.347 20.028 11.2461 19.9473 11.125C19.9069 11.0039 19.8464 10.903 19.7656 10.8223C19.4427 10.4993 19.2611 10.3379 19.2207 10.3379C18.9382 10.015 18.7565 9.81315 18.6758 9.73242C18.3932 9.36914 18.2318 9.1875 18.1914 9.1875C18.1914 9.14714 18.1712 9.12695 18.1309 9.12695L17.5859 8.64258C17.5052 8.52148 17.4245 8.42057 17.3438 8.33984C17.3034 8.25911 17.2428 8.1582 17.1621 8.03711C17.041 7.99674 16.9199 7.9362 16.7988 7.85547C16.7181 7.77474 16.6374 7.69401 16.5566 7.61328C16.1126 7.37109 15.8906 7.25 15.8906 7.25C15.5677 7.08854 15.3659 7.00781 15.2852 7.00781C15.2044 6.96745 15.1439 6.92708 15.1035 6.88672C14.9421 6.80599 14.8008 6.76562 14.6797 6.76562C14.5586 6.72526 14.4577 6.6849 14.377 6.64453C14.2559 6.60417 14.1348 6.58398 14.0137 6.58398C13.9329 6.58398 13.8118 6.5638 13.6504 6.52344C13.2064 6.48307 12.9238 6.42253 12.8027 6.3418C12.6816 6.26107 12.5605 6.26107 12.4395 6.3418C12.1569 6.86654 11.9753 7.25 11.8945 7.49219C11.8542 7.69401 11.8138 7.91602 11.7734 8.1582L11.5312 9.1875C11.4909 9.30859 11.4707 9.44987 11.4707 9.61133C11.5111 9.77279 11.5111 9.93424 11.4707 10.0957C11.3092 10.8223 11.2487 11.347 11.2891 11.6699C11.3294 11.9525 11.3698 12.2552 11.4102 12.5781C11.4102 12.7799 11.39 12.9818 11.3496 13.1836C11.3496 13.3854 11.3698 13.5872 11.4102 13.7891C11.4102 13.9102 11.4303 14.0312 11.4707 14.1523C11.5111 14.2734 11.5111 14.4147 11.4707 14.5762C11.4707 14.9798 11.4505 15.222 11.4102 15.3027C11.4102 15.3835 11.4102 15.4642 11.4102 15.5449C11.5312 16.11 11.5716 16.5137 11.5312 16.7559C11.5312 16.9577 11.5716 17.1595 11.6523 17.3613C11.4505 17.6439 11.4505 18.0273 11.6523 18.5117C11.5312 18.7539 11.5111 19.0163 11.5918 19.2988L11.6523 20.0859C11.5716 20.3685 11.5312 20.6107 11.5312 20.8125C11.4909 21.1354 11.4909 21.3978 11.5312 21.5996C11.612 21.7611 11.6927 21.9427 11.7734 22.1445C12.1367 22.1042 12.3184 22.084 12.3184 22.084C12.3587 22.084 12.3991 22.0638 12.4395 22.0234C12.9238 21.9427 13.166 21.9023 13.166 21.9023C13.4082 21.7409 13.5697 21.6602 13.6504 21.6602C13.7715 21.6602 13.8724 21.64 13.9531 21.5996C14.3568 21.3574 14.599 21.2363 14.6797 21.2363C14.7604 21.1556 14.8613 21.0951 14.9824 21.0547C15.1035 20.974 15.2044 20.8932 15.2852 20.8125C15.6888 20.6107 15.931 20.5098 16.0117 20.5098C16.2943 20.3483 16.4557 20.2676 16.4961 20.2676C16.5768 20.2676 16.6576 20.2474 16.7383 20.207C17.0208 19.9245 17.2227 19.7832 17.3438 19.7832L17.8887 19.2988C18.3327 18.9355 18.7161 18.7135 19.0391 18.6328C19.362 18.5521 19.5638 18.3906 19.6445 18.1484C19.7656 18.0677 19.8665 18.0072 19.9473 17.9668C20.028 17.8861 20.1087 17.8053 20.1895 17.7246C20.3913 17.5632 20.5326 17.4622 20.6133 17.4219C20.694 17.3411 20.7344 17.2806 20.7344 17.2402C20.9766 17.0384 21.138 16.9173 21.2188 16.877C21.2995 16.8366 21.36 16.776 21.4004 16.6953C21.6829 16.332 21.8242 16.1504 21.8242 16.1504C21.9453 15.9889 22.0664 15.8477 22.1875 15.7266C22.349 15.5651 22.4701 15.3835 22.5508 15.1816C22.4701 15.0202 22.3893 14.8587 22.3086 14.6973C22.2279 14.5358 22.1673 14.3542 22.127 14.1523ZM13.166 39.9453C13.5697 39.9857 13.7917 39.9857 13.832 39.9453C14.2357 39.9453 14.4577 39.9453 14.498 39.9453C14.9421 39.8646 15.2044 39.8242 15.2852 39.8242C15.3659 39.8242 15.4466 39.804 15.5273 39.7637C15.931 39.6426 16.1732 39.5417 16.2539 39.4609C16.6172 39.3802 16.7988 39.3398 16.7988 39.3398C16.8392 39.2995 16.8796 39.2793 16.9199 39.2793C17.1621 39.1178 17.3438 39.0371 17.4648 39.0371C17.6263 39.0371 17.7474 38.9967 17.8281 38.916C18.151 38.6335 18.373 38.472 18.4941 38.4316C18.6152 38.3509 18.7363 38.2702 18.8574 38.1895C19.1803 37.9473 19.362 37.8262 19.4023 37.8262C19.4427 37.7858 19.4629 37.7454 19.4629 37.7051C19.7051 37.4225 19.8464 37.3014 19.8867 37.3418C19.9674 37.3418 20.028 37.3216 20.0684 37.2812C20.3105 36.7161 20.4922 36.3529 20.6133 36.1914C20.7344 35.9896 20.8353 35.7676 20.916 35.5254C21.2389 35.1621 21.4408 34.9401 21.5215 34.8594C21.6426 34.7383 21.7233 34.6374 21.7637 34.5566C21.7637 34.2337 21.7637 34.0723 21.7637 34.0723C21.804 34.0319 21.8242 33.9714 21.8242 33.8906C21.7435 33.3255 21.7031 33.0026 21.7031 32.9219C21.7031 32.8411 21.6829 32.6999 21.6426 32.498C21.36 32.2155 21.1784 32.054 21.0977 32.0137C21.0573 31.9329 21.0371 31.832 21.0371 31.7109C20.6738 31.388 20.4518 31.2266 20.3711 31.2266C20.3307 31.2266 20.2904 31.2064 20.25 31.166C20.0078 30.8835 19.7253 30.6413 19.4023 30.4395C19.0794 30.1165 18.8776 29.9147 18.7969 29.834C18.7161 29.7129 18.5951 29.6322 18.4336 29.5918C18.1914 29.3092 18.0299 29.1478 17.9492 29.1074C17.8685 29.0671 17.7878 29.0267 17.707 28.9863C17.3034 28.7441 17.0814 28.6029 17.041 28.5625C16.8392 28.401 16.6777 28.3203 16.5566 28.3203C16.4759 28.3203 16.375 28.3001 16.2539 28.2598C15.8906 28.0176 15.6686 27.8763 15.5879 27.8359C15.5072 27.7552 15.4466 27.735 15.4062 27.7754C14.9622 27.6139 14.6999 27.5332 14.6191 27.5332C14.5788 27.5332 14.5384 27.513 14.498 27.4727C13.7715 27.1901 13.2871 27.0488 13.0449 27.0488C12.8835 26.9681 12.6413 26.9277 12.3184 26.9277C12.0358 26.8874 11.834 26.8672 11.7129 26.8672C11.5918 27.0286 11.5312 27.3717 11.5312 27.8965C11.5312 28.2194 11.5514 28.5423 11.5918 28.8652C11.6322 29.1478 11.6725 29.4505 11.7129 29.7734C11.7533 29.9349 11.7734 30.0964 11.7734 30.2578C11.8138 30.4193 11.8138 30.5404 11.7734 30.6211C11.8542 31.0247 11.8743 31.2467 11.834 31.2871C11.834 31.2871 11.834 31.3275 11.834 31.4082C11.8743 31.7311 11.8945 31.9935 11.8945 32.1953C11.8542 32.4375 11.8542 32.6191 11.8945 32.7402C11.9349 32.8613 11.9147 32.9421 11.834 32.9824C11.8743 33.3457 11.8945 33.5677 11.8945 33.6484C11.9349 33.7292 11.9551 33.8099 11.9551 33.8906C11.9954 34.2539 11.9954 34.5768 11.9551 34.8594C11.9551 35.1419 11.9551 35.3841 11.9551 35.5859L12.0156 36.252C12.0156 36.5345 12.0358 36.7161 12.0762 36.7969C12.1165 36.8776 12.1367 36.9785 12.1367 37.0996C12.1771 37.2611 12.1973 37.5436 12.1973 37.9473C12.1569 38.2702 12.1367 38.472 12.1367 38.5527C12.1771 38.5931 12.1973 38.6335 12.1973 38.6738C12.278 39.0775 12.2982 39.2995 12.2578 39.3398C12.2578 39.3802 12.278 39.4206 12.3184 39.4609C12.5605 39.8242 12.7422 40.0059 12.8633 40.0059C12.9844 39.9655 13.0853 39.9453 13.166 39.9453Z" fill="#F6F9FB"/>
</svg>
